<?xml version="1.0" encoding="UTF-8"?>
<svg version="1.1" xmlns="http://www.w3.org/2000/svg" width="310" height="208">
<path d="M0 0 C102.3 0 204.6 0 310 0 C310 68.64 310 137.28 310 208 C207.7 208 105.4 208 0 208 C0 139.36 0 70.72 0 0 Z " fill="#FCFCFD" transform="translate(0,0)"/>
<path d="M0 0 C101.97 0 203.94 0 309 0 C309 31.68 309 63.36 309 96 C207.03 96 105.06 96 0 96 C0 64.32 0 32.64 0 0 Z " fill="#6B3490" transform="translate(1,44)"/>
<path d="M0 0 C102.3 0 204.6 0 310 0 C310 14.52 310 29.04 310 44 C207.7 44 105.4 44 0 44 C0 29.48 0 14.96 0 0 Z " fill="#FDFCFD" transform="translate(0,0)"/>
<path d="M0 0 C3.96 0 7.92 0 12 0 C11.01 0.66 10.02 1.32 9 2 C8.41651248 4.6556728 8.41651248 4.6556728 8.3125 7.625 C8.209375 9.39875 8.10625 11.1725 8 13 C13.28 13 18.56 13 24 13 C24 9.04 24 5.08 24 1 C23.01 0.67 22.02 0.34 21 0 C24.63 0 28.26 0 32 0 C31.34 0.66 30.68 1.32 30 2 C29.62792646 4.71615864 29.62792646 4.71615864 29.5859375 7.8828125 C29.54726562 9.04941406 29.50859375 10.21601562 29.46875 11.41796875 C29.4378125 12.64128906 29.406875 13.86460938 29.375 15.125 C29.33632812 16.35605469 29.29765625 17.58710937 29.2578125 18.85546875 C29.1633001 21.90349376 29.07774506 24.95150862 29 28 C31.64 28 34.28 28 37 28 C37 19.42 37 10.84 37 2 C35.68 1.34 34.36 0.68 33 0 C40.59 0 48.18 0 56 0 C56 1.98 56 3.96 56 6 C55.34 6 54.68 6 54 6 C53.505 4.515 53.505 4.515 53 3 C49.04 2.67 45.08 2.34 41 2 C41 5.63 41 9.26 41 13 C44.3 13 47.6 13 51 13 C51 12.01 51 11.02 51 10 C51.66 10 52.32 10 53 10 C53 12.64 53 15.28 53 18 C52.34 17.67 51.68 17.34 51 17 C51 16.34 51 15.68 51 15 C47.7 15 44.4 15 41 15 C41 18.96 41 22.92 41 27 C43.12579013 26.94011859 45.25078413 26.85137256 47.375 26.75 C49.15003906 26.68039063 49.15003906 26.68039063 50.9609375 26.609375 C51.96382812 26.40828125 52.96671875 26.2071875 54 26 C55.34991113 24.08256777 55.34991113 24.08256777 56 22 C58 21.125 58 21.125 60 21 C60.66 21.66 61.32 22.32 62 23 C63.32 23 64.64 23 66 23 C65.505 22.54625 65.01 22.0925 64.5 21.625 C63 20 63 20 63 18 C62.34 18 61.68 18 61 18 C59.10036814 15.44280327 58.07751926 13.54263483 57.625 10.375 C58.08340901 7.47174292 58.68560284 6.76479086 61 5 C63.41015625 4.671875 63.41015625 4.671875 66.0625 4.75 C66.94035156 4.76546875 67.81820312 4.7809375 68.72265625 4.796875 C71 5 71 5 73 6 C72.67 7.32 72.34 8.64 72 10 C71.62875 9.505 71.2575 9.01 70.875 8.5 C68.25305607 6.40244486 66.26157528 6.78256165 63 7 C62.63950324 9.36564237 62.63950324 9.36564237 63 12 C64.84707585 13.83700991 64.84707585 13.83700991 67.3125 15.1875 C68.51326172 15.92033203 68.51326172 15.92033203 69.73828125 16.66796875 C70.48464844 17.10753906 71.23101562 17.54710938 72 18 C72.99 18.66 73.98 19.32 75 20 C75.51171875 23.0390625 75.51171875 23.0390625 75.6875 26.625 C75.75324219 27.81351563 75.81898438 29.00203125 75.88671875 30.2265625 C75.94279297 31.59941406 75.94279297 31.59941406 76 33 C77.15392455 30.6921509 77.53437166 28.52769669 78 26 C78.66 26 79.32 26 80 26 C80 26.66 80 27.32 80 28 C80.99 28 81.98 28 83 28 C83 21.07 83 14.14 83 7 C80.69 7 78.38 7 76 7 C75.67 7.66 75.34 8.32 75 9 C75 7.68 75 6.36 75 5 C81.93 5 88.86 5 96 5 C96 6.65 96 8.3 96 10 C95.01 9.505 95.01 9.505 94 9 C94 8.34 94 7.68 94 7 C91.69 7 89.38 7 87 7 C87 13.93 87 20.86 87 28 C88.32 28 89.64 28 91 28 C91 28.66 91 29.32 91 30 C87.37 30.33 83.74 30.66 80 31 C83.69743019 32.28980123 87.13571805 33.22714361 91 34 C91 39.28 91 44.56 91 50 C91.99 50 92.98 50 94 50 C94 50.66 94 51.32 94 52 C93.01 52 92.02 52 91 52 C91 53.98 91 55.96 91 58 C90.01 58 89.02 58 88 58 C88 56.02 88 54.04 88 52 C84.7 52 81.4 52 78 52 C77.67 53.98 77.34 55.96 77 58 C72.05 58 67.1 58 62 58 C62.886875 56.989375 63.77375 55.97875 64.6875 54.9375 C65.79587994 53.62855608 66.89994775 52.31595035 68 51 C68.51046875 50.401875 69.0209375 49.80375 69.546875 49.1875 C72.08293568 45.99605285 73.04237723 44.77691588 72.8125 40.5625 C72.4103125 39.2940625 72.4103125 39.2940625 72 38 C69.08365871 37.7497843 69.08365871 37.7497843 66 38 C65.34 38.99 64.68 39.98 64 41 C63.01 40.505 63.01 40.505 62 40 C62.33 38.68 62.66 37.36 63 36 C62.34 36 61.68 36 61 36 C60.71125 37.11375 60.4225 38.2275 60.125 39.375 C59 43 59 43 57 45 C58.0209375 45.7734375 58.0209375 45.7734375 59.0625 46.5625 C61 49 61 49 61 52.5625 C60 56 60 56 58.3125 57.9375 C55.24716836 59.34589562 53.34404315 59.47772045 50 59 C47.125 57.3125 47.125 57.3125 45 55 C44.4375 52.5 44.4375 52.5 45 50 C47 47.6875 47 47.6875 49 46 C47.68 45.01 46.36 44.02 45 43 C45.32529059 40.07238473 45.59569177 37.67384706 47.125 35.125 C50.06123987 33.36325608 52.65577674 33.76112691 56 34 C56.99 34.33 57.98 34.66 59 35 C58.0373469 32.8770099 58.0373469 32.8770099 56 31 C53.225843 30.57382239 50.82991911 30.39517714 48.05078125 30.390625 C47.27816452 30.37408875 46.50554779 30.35755249 45.70951843 30.34051514 C43.24376538 30.29196142 40.77862928 30.27064912 38.3125 30.25 C36.63994279 30.22184628 34.96741442 30.19191969 33.29492188 30.16015625 C29.19666538 30.08620119 25.09875284 30.03667222 21 30 C21 29.34 21 28.68 21 28 C21.99 27.67 22.98 27.34 24 27 C24.33 23.04 24.66 19.08 25 15 C19.39 15 13.78 15 8 15 C8 19.29 8 23.58 8 28 C9.32 28 10.64 28 12 28 C12 28.66 12 29.32 12 30 C8.04 30 4.08 30 0 30 C0 29.34 0 28.68 0 28 C1.32 28 2.64 28 4 28 C4 19.42 4 10.84 4 2 C2.68 1.34 1.36 0.68 0 0 Z " fill="#70388C" transform="translate(144,67)"/>
<path d="M0 0 C2.64 0 5.28 0 8 0 C9.13169701 2.35114592 10.25541381 4.70559335 11.375 7.0625 C11.69210938 7.71927734 12.00921875 8.37605469 12.3359375 9.05273438 C14.34820404 13.30783967 15.82600216 17.44038214 17 22 C19.75268027 20.62365986 19.98335238 19.12543076 21.1640625 16.30859375 C21.76347656 14.89223633 21.76347656 14.89223633 22.375 13.44726562 C22.7875 12.45404297 23.2 11.46082031 23.625 10.4375 C24.04523437 9.44041016 24.46546875 8.44332031 24.8984375 7.41601562 C25.93825751 4.94644311 26.97180499 2.47442996 28 0 C30.64 0 33.28 0 36 0 C35.34 0.66 34.68 1.32 34 2 C33.72155068 4.71934335 33.72155068 4.71934335 33.8046875 7.8828125 C33.81435547 9.63271484 33.81435547 9.63271484 33.82421875 11.41796875 C33.84097656 12.64128906 33.85773437 13.86460938 33.875 15.125 C33.88402344 16.35605469 33.89304688 17.58710937 33.90234375 18.85546875 C33.92597452 21.90383815 33.95891946 24.95182382 34 28 C34.99 28 35.98 28 37 28 C37.16798096 27.46705322 37.33596191 26.93410645 37.5090332 26.38500977 C39.43459248 20.42783089 41.72011366 14.68878571 44.1875 8.9375 C44.55552734 8.07189453 44.92355469 7.20628906 45.30273438 6.31445312 C46.19872592 4.20829117 47.09784655 2.10352808 48 0 C50.32568359 0.140625 50.32568359 0.140625 53 1 C54.52978516 3.484375 54.52978516 3.484375 55.7890625 6.75 C56.25570312 7.9153125 56.72234375 9.080625 57.203125 10.28125 C57.67234375 11.5084375 58.1415625 12.735625 58.625 14 C59.56573738 16.42049185 60.51578902 18.83739105 61.4765625 21.25 C62.096521 22.86648437 62.096521 22.86648437 62.72900391 24.515625 C63.79880944 27.32212957 63.79880944 27.32212957 67 28 C67 19.42 67 10.84 67 2 C66.01 1.67 65.02 1.34 64 1 C64 0.67 64 0.34 64 0 C67.15625 -0.33984375 67.15625 -0.33984375 71 0 C73.21395615 1.7973188 74.73502705 3.27551364 76.5 5.4375 C76.96704346 5.97793945 77.43408691 6.51837891 77.9152832 7.07519531 C81.7747519 11.58444876 85.44905481 16.24495606 89 21 C89.05791844 17.87507749 89.09356746 14.75029234 89.125 11.625 C89.15013672 10.29082031 89.15013672 10.29082031 89.17578125 8.9296875 C89.18222656 8.07890625 89.18867187 7.228125 89.1953125 6.3515625 C89.20578613 5.56604004 89.21625977 4.78051758 89.22705078 3.97119141 C89.17990127 1.765535 89.17990127 1.765535 87 0 C89.97 0 92.94 0 96 0 C95.34 0.66 94.68 1.32 94 2 C93.62731113 4.91188245 93.62731113 4.91188245 93.5859375 8.3203125 C93.54726562 9.57714844 93.50859375 10.83398438 93.46875 12.12890625 C93.4378125 13.44761719 93.406875 14.76632813 93.375 16.125 C93.33681971 17.46486918 93.29776794 18.80471383 93.2578125 20.14453125 C93.1632797 23.42954619 93.07772844 26.71455138 93 30 C89.25111602 28.75037201 88.35380681 27.22103014 85.9375 24.125 C81.193356 18.17141139 76.16131409 12.59748148 71 7 C70.67 13.93 70.34 20.86 70 28 C71.32 28 72.64 28 74 28 C74 28.66 74 29.32 74 30 C67.73 30 61.46 30 55 30 C55 29.34 55 28.68 55 28 C56.32 28 57.64 28 59 28 C58.01 24.7 57.02 21.4 56 18 C49.565 18.495 49.565 18.495 43 19 C42.01 21.97 41.02 24.94 40 28 C41.32 28 42.64 28 44 28 C44 28.66 44 29.32 44 30 C38.06 30 32.12 30 26 30 C26 29.34 26 28.68 26 28 C26.99 27.67 27.98 27.34 29 27 C28.67 20.07 28.34 13.14 28 6 C27.44570313 7.40894531 26.89140625 8.81789063 26.3203125 10.26953125 C25.58872451 12.1172599 24.85694363 13.96491219 24.125 15.8125 C23.76019531 16.74126953 23.39539063 17.67003906 23.01953125 18.62695312 C22.66503906 19.51962891 22.31054688 20.41230469 21.9453125 21.33203125 C21.62062988 22.15421143 21.29594727 22.9763916 20.96142578 23.82348633 C20 26 20 26 18 29 C17.34 29 16.68 29 16 29 C14.68270177 25.91869487 13.3720095 22.83462237 12.0625 19.75 C11.50272461 18.44095703 11.50272461 18.44095703 10.93164062 17.10546875 C10.39506836 15.83896484 10.39506836 15.83896484 9.84765625 14.546875 C9.51773682 13.77182617 9.18781738 12.99677734 8.84790039 12.19824219 C8.05591207 10.14495602 7.48071035 8.14503641 7 6 C6.34 6 5.68 6 5 6 C5 13.26 5 20.52 5 28 C5.99 28 6.98 28 8 28 C8 28.66 8 29.32 8 30 C4.7 30 1.4 30 -2 30 C-2 29.34 -2 28.68 -2 28 C-1.01 27.67 -0.02 27.34 1 27 C2.07795207 21.72234667 2.18341981 16.61137539 2.1875 11.25 C2.19974609 10.38761719 2.21199219 9.52523437 2.22460938 8.63671875 C2.22654297 7.81300781 2.22847656 6.98929687 2.23046875 6.140625 C2.23457764 5.39329102 2.23868652 4.64595703 2.24291992 3.87597656 C2.16239511 1.75543042 2.16239511 1.75543042 0 0 Z " fill="#E0D3E6" transform="translate(19,67)"/>
<path d="M0 0 C1.1034375 0.01546875 2.206875 0.0309375 3.34375 0.046875 C6.17698661 0.22921201 8.73790341 0.62225078 11.5 1.25 C13.975 1.745 13.975 1.745 16.5 2.25 C16.5 10.83 16.5 19.41 16.5 28.25 C15.18 28.58 13.86 28.91 12.5 29.25 C11.84 30.24 11.18 31.23 10.5 32.25 C9.51 31.92 8.52 31.59 7.5 31.25 C7.5 30.59 7.5 29.93 7.5 29.25 C6.51 29.58 5.52 29.91 4.5 30.25 C-0.76721247 30.75439554 -5.15121655 30.87622089 -10 28.625 C-14.45863727 24.3892946 -15.68291171 20.80263136 -15.9375 14.75 C-15.79041032 9.82918172 -14.92779626 6.95572569 -11.5 3.25 C-7.56902649 0.36865816 -4.83761086 -0.11302829 0 0 Z " fill="#6E3992" transform="translate(131.5,66.75)"/>
<path d="M0 0 C7.59 0 15.18 0 23 0 C23 1.98 23 3.96 23 6 C22.34 6 21.68 6 21 6 C21 4.68 21 3.36 21 2 C16.71 2 12.42 2 8 2 C8 5.63 8 9.26 8 13 C9.60875 12.855625 11.2175 12.71125 12.875 12.5625 C13.77992188 12.48128906 14.68484375 12.40007812 15.6171875 12.31640625 C18.01110861 12.13010715 18.01110861 12.13010715 20 11 C20 13.31 20 15.62 20 18 C19.34 17.34 18.68 16.68 18 16 C15.56747339 15.53837573 15.56747339 15.53837573 12.875 15.375 C11.26625 15.25125 9.6575 15.1275 8 15 C8.33 18.96 8.66 22.92 9 27 C13.29 27 17.58 27 22 27 C22.66 25.68 23.32 24.36 24 23 C24 24.65 24 26.3 24 28 C25.32 27.67 26.64 27.34 28 27 C28.08676908 22.87513162 28.14031295 18.75049616 28.1875 14.625 C28.21263672 13.449375 28.23777344 12.27375 28.26367188 11.0625 C28.27333984 9.94101563 28.28300781 8.81953125 28.29296875 7.6640625 C28.3086792 6.62717285 28.32438965 5.5902832 28.34057617 4.52197266 C28.22818604 3.68972168 28.1157959 2.8574707 28 2 C27.01 1.34 26.02 0.68 25 0 C27.89684158 -0.10829314 30.78961019 -0.18743954 33.6875 -0.25 C34.50412109 -0.28351563 35.32074219 -0.31703125 36.16210938 -0.3515625 C40.23975962 -0.41759732 42.44206209 -0.33201997 46.01953125 1.796875 C48.74374568 4.82736206 49 6.96924935 49 11 C47.6875 13.4375 47.6875 13.4375 46 15 C45.34 15 44.68 15 44 15 C50.5989371 23.58063724 50.5989371 23.58063724 60 28 C60 28.66 60 29.32 60 30 C52.44282036 29.86505036 49.26285028 27.19464919 44 22 C40.31580701 18.66668253 37.97878834 17.4631431 33 17 C33.495 21.95 33.495 21.95 34 27 C35.32 27.33 36.64 27.66 38 28 C38 28.66 38 29.32 38 30 C25.46 30 12.92 30 0 30 C0 29.34 0 28.68 0 28 C1.32 28 2.64 28 4 28 C3.91945528 23.7075448 3.80658477 19.41654533 3.6875 15.125 C3.66494141 13.90167969 3.64238281 12.67835937 3.61914062 11.41796875 C3.58369141 10.25136719 3.54824219 9.08476563 3.51171875 7.8828125 C3.48553467 6.80402832 3.45935059 5.72524414 3.43237305 4.61376953 C3.28968994 3.75122559 3.14700684 2.88868164 3 2 C2.01 1.34 1.02 0.68 0 0 Z " fill="#F4EFF5" transform="translate(238,67)"/>
<path d="M0 0 C2.64 0 5.28 0 8 0 C9.13169701 2.35114592 10.25541381 4.70559335 11.375 7.0625 C11.69210938 7.71927734 12.00921875 8.37605469 12.3359375 9.05273438 C14.34820404 13.30783967 15.82600216 17.44038214 17 22 C19.75268027 20.62365986 19.98335238 19.12543076 21.1640625 16.30859375 C21.76347656 14.89223633 21.76347656 14.89223633 22.375 13.44726562 C22.7875 12.45404297 23.2 11.46082031 23.625 10.4375 C24.04523437 9.44041016 24.46546875 8.44332031 24.8984375 7.41601562 C25.93825751 4.94644311 26.97180499 2.47442996 28 0 C30.64 0 33.28 0 36 0 C35.34 0.66 34.68 1.32 34 2 C33.62826984 4.6182767 33.62826984 4.6182767 33.5859375 7.6640625 C33.54726563 8.78554687 33.50859375 9.90703125 33.46875 11.0625 C33.42234375 12.8259375 33.42234375 12.8259375 33.375 14.625 C33.33632813 15.80835937 33.29765625 16.99171875 33.2578125 18.2109375 C33.16331155 21.14046691 33.07775442 24.06998597 33 27 C32.01 26.67 31.02 26.34 30 26 C29.34 19.4 28.68 12.8 28 6 C27.44570313 7.40894531 26.89140625 8.81789063 26.3203125 10.26953125 C25.58872451 12.1172599 24.85694363 13.96491219 24.125 15.8125 C23.76019531 16.74126953 23.39539063 17.67003906 23.01953125 18.62695312 C22.66503906 19.51962891 22.31054688 20.41230469 21.9453125 21.33203125 C21.62062988 22.15421143 21.29594727 22.9763916 20.96142578 23.82348633 C20 26 20 26 18 29 C17.34 29 16.68 29 16 29 C14.68270177 25.91869487 13.3720095 22.83462237 12.0625 19.75 C11.50272461 18.44095703 11.50272461 18.44095703 10.93164062 17.10546875 C10.39506836 15.83896484 10.39506836 15.83896484 9.84765625 14.546875 C9.51773682 13.77182617 9.18781738 12.99677734 8.84790039 12.19824219 C8.05591207 10.14495602 7.48071035 8.14503641 7 6 C6.34 6 5.68 6 5 6 C5 13.26 5 20.52 5 28 C5.99 28 6.98 28 8 28 C8 28.66 8 29.32 8 30 C4.7 30 1.4 30 -2 30 C-2 29.34 -2 28.68 -2 28 C-1.01 27.67 -0.02 27.34 1 27 C2.07795207 21.72234667 2.18341981 16.61137539 2.1875 11.25 C2.19974609 10.38761719 2.21199219 9.52523437 2.22460938 8.63671875 C2.22654297 7.81300781 2.22847656 6.98929687 2.23046875 6.140625 C2.23457764 5.39329102 2.23868652 4.64595703 2.24291992 3.87597656 C2.16239511 1.75543042 2.16239511 1.75543042 0 0 Z " fill="#EBE2F0" transform="translate(19,67)"/>
<path d="M0 0 C2.64 0.66 5.28 1.32 8 2 C8 7.28 8 12.56 8 18 C8.99 18 9.98 18 11 18 C11 18.66 11 19.32 11 20 C10.01 20 9.02 20 8 20 C8 21.98 8 23.96 8 26 C7.01 26 6.02 26 5 26 C5 24.02 5 22.04 5 20 C1.04 20.33 -2.92 20.66 -7 21 C-7.33 21.99 -7.66 22.98 -8 24 C-10.97 24 -13.94 24 -17 24 C-16.0925 22.96875 -15.185 21.9375 -14.25 20.875 C-9.37490165 15.12192185 -6.70034069 11.791142 -7 4 C-5 2 -5 2 -2.375 1.875 C-1.59125 1.91625 -0.8075 1.9575 0 2 C0 1.34 0 0.68 0 0 Z " fill="#6D368E" transform="translate(227,99)"/>
<path d="M0 0 C3.96 0 7.92 0 12 0 C11.01 0.66 10.02 1.32 9 2 C8.41651248 4.6556728 8.41651248 4.6556728 8.3125 7.625 C8.209375 9.39875 8.10625 11.1725 8 13 C13.28 13 18.56 13 24 13 C24 9.04 24 5.08 24 1 C23.01 0.67 22.02 0.34 21 0 C24.63 0 28.26 0 32 0 C31.34 0.66 30.68 1.32 30 2 C29.62792646 4.71615864 29.62792646 4.71615864 29.5859375 7.8828125 C29.54726562 9.04941406 29.50859375 10.21601562 29.46875 11.41796875 C29.4378125 12.64128906 29.406875 13.86460938 29.375 15.125 C29.33632812 16.35605469 29.29765625 17.58710937 29.2578125 18.85546875 C29.1633001 21.90349376 29.07774506 24.95150862 29 28 C29.99 28.33 30.98 28.66 32 29 C28.37 29 24.74 29 21 29 C21.99 28.34 22.98 27.68 24 27 C24.58481121 24.11404054 24.58481121 24.11404054 24.6875 20.875 C24.790625 18.93625 24.89375 16.9975 25 15 C19.39 15 13.78 15 8 15 C8 19.29 8 23.58 8 28 C9.32 28 10.64 28 12 28 C12 28.66 12 29.32 12 30 C8.04 30 4.08 30 0 30 C0 29.34 0 28.68 0 28 C1.32 28 2.64 28 4 28 C4 19.42 4 10.84 4 2 C2.68 1.34 1.36 0.68 0 0 Z " fill="#FDFCFB" transform="translate(144,67)"/>
<path d="M0 0 C2.4375 1.1875 2.4375 1.1875 4 3 C4.4375 5.5 4.4375 5.5 4 8 C2.5 9.8125 2.5 9.8125 1 11 C1.680625 11.515625 2.36125 12.03125 3.0625 12.5625 C5 15 5 15 5 18.5625 C4 22 4 22 2.3125 23.9375 C-0.75283164 25.34589562 -2.65595685 25.47772045 -6 25 C-8.875 23.3125 -8.875 23.3125 -11 21 C-11.5625 18.5 -11.5625 18.5 -11 16 C-9 13.6875 -9 13.6875 -7 12 C-8.32 11.01 -9.64 10.02 -11 9 C-10.67470941 6.07238473 -10.40430823 3.67384706 -8.875 1.125 C-5.86703161 -0.67978104 -3.42137208 -0.36014443 0 0 Z " fill="#ECC238" transform="translate(200,101)"/>
<path d="M0 0 C7.59 0 15.18 0 23 0 C23 1.98 23 3.96 23 6 C22.34 6 21.68 6 21 6 C21 4.68 21 3.36 21 2 C16.71 2 12.42 2 8 2 C8 5.63 8 9.26 8 13 C9.60875 12.855625 11.2175 12.71125 12.875 12.5625 C13.77992188 12.48128906 14.68484375 12.40007812 15.6171875 12.31640625 C18.01110861 12.13010715 18.01110861 12.13010715 20 11 C20 13.31 20 15.62 20 18 C19.34 17.34 18.68 16.68 18 16 C15.56747339 15.53837573 15.56747339 15.53837573 12.875 15.375 C11.26625 15.25125 9.6575 15.1275 8 15 C8.33 18.96 8.66 22.92 9 27 C13.29 27 17.58 27 22 27 C22.66 25.68 23.32 24.36 24 23 C24 24.65 24 26.3 24 28 C26.64 27.34 29.28 26.68 32 26 C32 23.36 32 20.72 32 18 C32.33 18 32.66 18 33 18 C33.495 22.455 33.495 22.455 34 27 C35.32 27.33 36.64 27.66 38 28 C38 28.66 38 29.32 38 30 C25.46 30 12.92 30 0 30 C0 29.34 0 28.68 0 28 C1.32 28 2.64 28 4 28 C3.91945528 23.7075448 3.80658477 19.41654533 3.6875 15.125 C3.66494141 13.90167969 3.64238281 12.67835937 3.61914062 11.41796875 C3.58369141 10.25136719 3.54824219 9.08476563 3.51171875 7.8828125 C3.48553467 6.80402832 3.45935059 5.72524414 3.43237305 4.61376953 C3.28968994 3.75122559 3.14700684 2.88868164 3 2 C2.01 1.34 1.02 0.68 0 0 Z " fill="#F1EAF4" transform="translate(238,67)"/>
<path d="M0 0 C7.59 0 15.18 0 23 0 C23 1.98 23 3.96 23 6 C22.34 6 21.68 6 21 6 C20.505 4.515 20.505 4.515 20 3 C16.04 2.67 12.08 2.34 8 2 C8 5.63 8 9.26 8 13 C11.3 13 14.6 13 18 13 C18 12.01 18 11.02 18 10 C18.66 10 19.32 10 20 10 C20 12.64 20 15.28 20 18 C19.34 17.67 18.68 17.34 18 17 C18 16.34 18 15.68 18 15 C14.7 15 11.4 15 8 15 C8 18.96 8 22.92 8 27 C10.10494301 26.91291962 12.20902142 26.80474307 14.3125 26.6875 C15.48425781 26.62949219 16.65601563 26.57148437 17.86328125 26.51171875 C21.0983686 25.98395232 22.08684881 25.57619276 24 23 C24.04254356 24.99954746 24.04080783 27.00041636 24 29 C23 30 23 30 19.67358398 30.11352539 C18.19774444 30.11336629 16.72189931 30.10767314 15.24609375 30.09765625 C14.47064713 30.0962413 13.6952005 30.09482635 12.89625549 30.09336853 C10.40996506 30.08775345 7.9237634 30.07519846 5.4375 30.0625 C3.75586067 30.05748694 2.07421994 30.0529237 0.39257812 30.04882812 C-3.73831566 30.03777913 -7.86914276 30.02050445 -12 30 C-12 29.67 -12 29.34 -12 29 C-6.72 28.67 -1.44 28.34 4 28 C4 19.42 4 10.84 4 2 C2.68 1.34 1.36 0.68 0 0 Z " fill="#EEC235" transform="translate(177,67)"/>
<path d="M0 0 C3.15625 -0.33984375 3.15625 -0.33984375 7 0 C9.21395615 1.7973188 10.73502705 3.27551364 12.5 5.4375 C12.96704346 5.97793945 13.43408691 6.51837891 13.9152832 7.07519531 C17.7747519 11.58444876 21.44905481 16.24495606 25 21 C25.05791844 17.87507749 25.09356746 14.75029234 25.125 11.625 C25.14175781 10.73554687 25.15851563 9.84609375 25.17578125 8.9296875 C25.18222656 8.07890625 25.18867187 7.228125 25.1953125 6.3515625 C25.20578613 5.56604004 25.21625977 4.78051758 25.22705078 3.97119141 C25.17990127 1.765535 25.17990127 1.765535 23 0 C25.97 0 28.94 0 32 0 C31.34 0.66 30.68 1.32 30 2 C29.62731113 4.91188245 29.62731113 4.91188245 29.5859375 8.3203125 C29.54726562 9.57714844 29.50859375 10.83398438 29.46875 12.12890625 C29.4378125 13.44761719 29.406875 14.76632813 29.375 16.125 C29.33681971 17.46486918 29.29776794 18.80471383 29.2578125 20.14453125 C29.1632797 23.42954619 29.07772844 26.71455138 29 30 C25.25111602 28.75037201 24.35380681 27.22103014 21.9375 24.125 C17.80113899 18.92053262 13.42992901 14.05123367 8.87109375 9.21484375 C7 7 7 7 7 5 C6.34 5 5.68 5 5 5 C5 12.26 5 19.52 5 27 C4.67 27 4.34 27 4 27 C4 18.75 4 10.5 4 2 C2.68 1.67 1.36 1.34 0 1 C0 0.67 0 0.34 0 0 Z " fill="#F3EDF6" transform="translate(83,67)"/>
<path d="M0 0 C0.99 0 1.98 0 3 0 C3.33 1.98 3.66 3.96 4 6 C4.969375 5.979375 5.93875 5.95875 6.9375 5.9375 C10 6 10 6 11 7 C11.07244053 9.01964199 11.08377188 11.04167124 11.0625 13.0625 C11.05347656 14.16722656 11.04445312 15.27195313 11.03515625 16.41015625 C11.02355469 17.26480469 11.01195312 18.11945313 11 19 C10.34 19 9.68 19 9 19 C9 15.37 9 11.74 9 8 C7.35 8.66 5.7 9.32 4 10 C3.67 12.97 3.34 15.94 3 19 C1.04233719 19.08082094 -0.91626728 19.13910778 -2.875 19.1875 C-4.51082031 19.23970703 -4.51082031 19.23970703 -6.1796875 19.29296875 C-7.11039063 19.19628906 -8.04109375 19.09960938 -9 19 C-11.46324069 15.30513897 -11.38991688 13.36706908 -11 9 C-9.875 7.0625 -9.875 7.0625 -8 6 C-4.8125 5.8125 -4.8125 5.8125 -2 6 C-1.67 6.66 -1.34 7.32 -1 8 C-0.67 5.36 -0.34 2.72 0 0 Z " fill="#F4F4F5" transform="translate(244,149)"/>
<path d="M0 0 C1.11503906 0.00386719 2.23007813 0.00773437 3.37890625 0.01171875 C6.2835124 0.2973569 7.97850026 0.8034317 10.4375 2.3125 C10.4375 4.2925 10.4375 6.2725 10.4375 8.3125 C10.025 7.879375 9.6125 7.44625 9.1875 7 C6.10317358 4.0258281 3.71533989 1.86774212 -0.6875 1.625 C-5.29276955 2.44206395 -6.74861786 3.6459263 -9.5625 7.3125 C-11.44975455 12.97426365 -11.47377314 18.42245202 -8.875 23.8125 C-6.38253022 26.50706193 -5.13731481 27.56428295 -1.5625 28.3125 C4.54183363 28.20151212 7.18849286 26.3542385 11.4375 22.3125 C10.75 25.1875 10.75 25.1875 9.4375 28.3125 C4.30952232 30.99262771 -0.91452166 30.97599232 -6.5625 30.3125 C-10.31448219 28.57050827 -12.01572969 27.05975276 -14.4375 23.75 C-16.45959015 17.5713912 -16.72432875 11.72221888 -13.875 5.8125 C-9.60823856 1.19978493 -6.26751553 -0.09441217 0 0 Z " fill="#EDE3F1" transform="translate(131.5625,66.6875)"/>
<path d="M0 0 C0.66 0 1.32 0 2 0 C2 4.95 2 9.9 2 15 C2.99 15 3.98 15 5 15 C5 15.66 5 16.32 5 17 C4.01 17 3.02 17 2 17 C2 18.98 2 20.96 2 23 C1.01 23 0.02 23 -1 23 C-1 21.02 -1 19.04 -1 17 C-4.3 17 -7.6 17 -11 17 C-9.56407335 12.88016856 -7.53749031 9.74182002 -4.9375 6.25 C-4.22464844 5.28578125 -3.51179687 4.3215625 -2.77734375 3.328125 C-1 1 -1 1 0 0 Z " fill="#E3B73E" transform="translate(233,102)"/>
<path d="M0 0 C0.99 0.33 1.98 0.66 3 1 C3.94921875 2.9609375 3.94921875 2.9609375 4.6875 5.375 C5.06455078 6.56222656 5.06455078 6.56222656 5.44921875 7.7734375 C6 10 6 10 6 13 C6.66 13 7.32 13 8 13 C8.12117187 12.39671875 8.24234375 11.7934375 8.3671875 11.171875 C8.53476563 10.37265625 8.70234375 9.5734375 8.875 8.75 C9.03742188 7.96109375 9.19984375 7.1721875 9.3671875 6.359375 C9.99150075 4.03168856 10.84838542 2.10968048 12 0 C12.99 0 13.98 0 15 0 C15.3396019 1.87387477 15.67138691 3.74916697 16 5.625 C16.185625 6.66914063 16.37125 7.71328125 16.5625 8.7890625 C16.98715797 11.90574865 17.07545206 14.85930812 17 18 C16.34 18 15.68 18 15 18 C14.34 14.37 13.68 10.74 13 7 C11.35 10.63 9.7 14.26 8 18 C7.01 17.67 6.02 17.34 5 17 C4.05078125 14.93359375 4.05078125 14.93359375 3.3125 12.4375 C3.06113281 11.61121094 2.80976563 10.78492188 2.55078125 9.93359375 C2.36902344 9.29550781 2.18726563 8.65742188 2 8 C1.67 8 1.34 8 1 8 C0.67 11.3 0.34 14.6 0 18 C-0.99 18 -1.98 18 -3 18 C-2.88521587 15.93690624 -2.75773802 13.87451646 -2.625 11.8125 C-2.55539063 10.66394531 -2.48578125 9.51539063 -2.4140625 8.33203125 C-2.02490426 5.20040883 -1.3190149 2.84714191 0 0 Z " fill="#9A9A9C" transform="translate(187,150)"/>
<path d="M0 0 C6.93 0 13.86 0 21 0 C21 1.65 21 3.3 21 5 C20.34 4.67 19.68 4.34 19 4 C19 3.34 19 2.68 19 2 C16.69 2 14.38 2 12 2 C12 8.93 12 15.86 12 23 C13.32 23 14.64 23 16 23 C16 23.66 16 24.32 16 25 C12.37 25 8.74 25 5 25 C5 24.34 5 23.68 5 23 C5.99 23 6.98 23 8 23 C8 16.07 8 9.14 8 2 C5.69 2 3.38 2 1 2 C0.67 2.66 0.34 3.32 0 4 C0 2.68 0 1.36 0 0 Z " fill="#EEC535" transform="translate(219,72)"/>
<path d="M0 0 C0.87785156 0.01546875 1.75570312 0.0309375 2.66015625 0.046875 C4.9375 0.25 4.9375 0.25 6.9375 1.25 C6.6075 2.57 6.2775 3.89 5.9375 5.25 C5.56625 4.755 5.195 4.26 4.8125 3.75 C2.19055607 1.65244486 0.19907528 2.03256165 -3.0625 2.25 C-3.42299676 4.61564237 -3.42299676 4.61564237 -3.0625 7.25 C-1.21542415 9.08700991 -1.21542415 9.08700991 1.25 10.4375 C2.05050781 10.92605469 2.85101563 11.41460937 3.67578125 11.91796875 C4.42214844 12.35753906 5.16851562 12.79710938 5.9375 13.25 C6.9275 13.91 7.9175 14.57 8.9375 15.25 C8.44742155 21.74353946 8.44742155 21.74353946 6.2109375 23.96484375 C3.5153986 25.48861058 1.88684452 25.59177148 -1.1875 25.5 C-2.05632812 25.48453125 -2.92515625 25.4690625 -3.8203125 25.453125 C-6.0625 25.25 -6.0625 25.25 -8.0625 24.25 C-8.0625 22.27 -8.0625 20.29 -8.0625 18.25 C-7.711875 18.889375 -7.36125 19.52875 -7 20.1875 C-4.2638345 23.1001923 -1.95898821 23.03746428 1.9375 23.25 C2.5975 22.92 3.2575 22.59 3.9375 22.25 C4.34543963 19.90593218 4.34543963 19.90593218 3.9375 17.25 C1.82635905 15.18853415 1.82635905 15.18853415 -0.9375 13.5625 C-6.00672311 10.30577689 -6.00672311 10.30577689 -8.0625 8.25 C-8.41979435 5.46310407 -8.5462333 3.91120688 -6.859375 1.60546875 C-4.46691359 -0.19927932 -2.96576902 -0.08735697 0 0 Z " fill="#F2C935" transform="translate(210.0625,71.75)"/>
<path d="M0 0 C1.44375 0.12375 2.8875 0.2475 4.375 0.375 C5.59316406 0.47941406 5.59316406 0.47941406 6.8359375 0.5859375 C9 1 9 1 11 3 C11.49609528 6.04002573 11.44067049 8.95435332 11 12 C9.4375 14.0625 9.4375 14.0625 7 15 C4.69 15 2.38 15 0 15 C0 10.05 0 5.1 0 0 Z " fill="#6C3690" transform="translate(271,68)"/>
<path d="M0 0 C0.66 0 1.32 0 2 0 C3.40071625 2.90499087 4.76584957 5.82535947 6.125 8.75 C6.52332031 9.575 6.92164063 10.4 7.33203125 11.25 C7.69941406 12.04921875 8.06679688 12.8484375 8.4453125 13.671875 C8.79094238 14.4050293 9.13657227 15.13818359 9.49267578 15.89355469 C10 18 10 18 9.09716797 20.27050781 C8.73510254 20.84124023 8.37303711 21.41197266 8 22 C7.34 22 6.68 22 6 22 C5.67 22.99 5.34 23.98 5 25 C4.34 24.67 3.68 24.34 3 24 C3 23.34 3 22.68 3 22 C2.01 22 1.02 22 0 22 C0 14.74 0 7.48 0 0 Z " fill="#6F3B91" transform="translate(24,73)"/>
<path d="M0 0 C0.33 0 0.66 0 1 0 C1.33 7.26 1.66 14.52 2 22 C0.68 22.33 -0.64 22.66 -2 23 C-3.28436734 24.9837767 -3.28436734 24.9837767 -4 27 C-4.99 24.69 -5.98 22.38 -7 20 C-7.33 20.99 -7.66 21.98 -8 23 C-9 21 -9 21 -8.39501953 18.95288086 C-8.06099121 18.13182861 -7.72696289 17.31077637 -7.3828125 16.46484375 C-7.02316406 15.57345703 -6.66351563 14.68207031 -6.29296875 13.76367188 C-5.90753906 12.83103516 -5.52210937 11.89839844 -5.125 10.9375 C-4.55845703 9.53274414 -4.55845703 9.53274414 -3.98046875 8.09960938 C-1.15390339 1.15390339 -1.15390339 1.15390339 0 0 Z " fill="#6D3791" transform="translate(47,72)"/>
<path d="M0 0 C0.66 0 1.32 0 2 0 C2 1.65 2 3.3 2 5 C4.31 5 6.62 5 9 5 C9.99 7.31 10.98 9.62 12 12 C13.32 9.69 14.64 7.38 16 5 C16.66 5 17.32 5 18 5 C13.71122995 18.74355858 13.71122995 18.74355858 11 23 C8.25 24.0625 8.25 24.0625 6 24 C6.70125 23.525625 7.4025 23.05125 8.125 22.5625 C10.23695237 20.24178022 10.23695237 20.24178022 9.890625 17.87109375 C9.03924949 13.95605635 7.88415557 10.54285663 6 7 C4.68 7 3.36 7 2 7 C2 9.97 2 12.94 2 16 C3.32 16 4.64 16 6 16 C6 16.66 6 17.32 6 18 C4.33388095 18.042721 2.66617115 18.04063832 1 18 C0 17 0 17 -0.09765625 14.71484375 C-0.08605469 13.79832031 -0.07445312 12.88179687 -0.0625 11.9375 C-0.05347656 11.01839844 -0.04445312 10.09929687 -0.03515625 9.15234375 C-0.02355469 8.44207031 -0.01195312 7.73179687 0 7 C-0.99 7 -1.98 7 -3 7 C-3 6.34 -3 5.68 -3 5 C-2.01 5 -1.02 5 0 5 C0 3.35 0 1.7 0 0 Z " fill="#98989A" transform="translate(133,150)"/>
<path d="M0 0 C2.3151023 2.08359207 2.90276165 3.44435228 3.4375 6.5 C2.84278924 9.89834723 1.79734842 11.01241034 -1 13 C-4.125 13.4375 -4.125 13.4375 -7 13 C-9.46324069 9.30513897 -9.38991688 7.36706908 -9 3 C-6.85106865 -0.70093733 -4.00059138 -0.58341958 0 0 Z " fill="#979799" transform="translate(166,155)"/>
<path d="M0 0 C0.33 0 0.66 0 1 0 C1 8.25 1 16.5 1 25 C6.61 25 12.22 25 18 25 C18.66 23.68 19.32 22.36 20 21 C20 22.65 20 24.3 20 26 C22.64 25.34 25.28 24.68 28 24 C28 21.36 28 18.72 28 16 C28.33 16 28.66 16 29 16 C29.495 20.455 29.495 20.455 30 25 C31.32 25.33 32.64 25.66 34 26 C34 26.66 34 27.32 34 28 C21.46 28 8.92 28 -4 28 C-4 27.34 -4 26.68 -4 26 C-2.68 26 -1.36 26 0 26 C0 17.42 0 8.84 0 0 Z " fill="#DAC9E2" transform="translate(242,69)"/>
<path d="M0 0 C3.125 0.25 3.125 0.25 5 1.75 C5.37125 2.245 5.7425 2.74 6.125 3.25 C6.785 2.59 7.445 1.93 8.125 1.25 C8.125 1.91 8.125 2.57 8.125 3.25 C8.785 3.25 9.445 3.25 10.125 3.25 C10.125 2.59 10.125 1.93 10.125 1.25 C10.785 1.25 11.445 1.25 12.125 1.25 C12.455 2.24 12.785 3.23 13.125 4.25 C12.135 4.58 11.145 4.91 10.125 5.25 C9.31936362 7.35584438 9.31936362 7.35584438 8.9375 9.8125 C8.77894531 10.63878906 8.62039062 11.46507813 8.45703125 12.31640625 C8.34746094 12.95449219 8.23789063 13.59257813 8.125 14.25 C6.311508 13.10573734 4.49923275 11.95954608 2.6875 10.8125 C1.67816406 10.17441406 0.66882813 9.53632812 -0.37109375 8.87890625 C-2.875 7.25 -2.875 7.25 -3.875 6.25 C-4 3.75 -4 3.75 -3.875 1.25 C-2.875 0.25 -2.875 0.25 0 0 Z " fill="#6E368E" transform="translate(209.875,72.75)"/>
<path d="M0 0 C2.9375 0.625 2.9375 0.625 5.375 2.1875 C6.9375 4.625 6.9375 4.625 7.125 7.875 C5.26462215 13.74987741 1.21293104 17.34956896 -3.0625 21.625 C-0.4225 21.625 2.2175 21.625 4.9375 21.625 C5.2675 20.965 5.5975 20.305 5.9375 19.625 C6.5975 19.625 7.2575 19.625 7.9375 19.625 C7.6075 21.275 7.2775 22.925 6.9375 24.625 C1.9875 24.625 -2.9625 24.625 -8.0625 24.625 C-7.175625 23.614375 -6.28875 22.60375 -5.375 21.5625 C-4.26662006 20.25355608 -3.16255225 18.94095035 -2.0625 17.625 C-1.29679688 16.7278125 -1.29679688 16.7278125 -0.515625 15.8125 C2.02043568 12.62105285 2.97987723 11.40191588 2.75 7.1875 C2.481875 6.341875 2.21375 5.49625 1.9375 4.625 C-0.97884129 4.3747843 -0.97884129 4.3747843 -4.0625 4.625 C-5.0525 6.11 -5.0525 6.11 -6.0625 7.625 C-6.7225 7.295 -7.3825 6.965 -8.0625 6.625 C-3.93923956 0.80392644 -3.93923956 0.80392644 0 0 Z " fill="#EEC537" transform="translate(214.0625,100.375)"/>
<path d="M0 0 C3.63 0 7.26 0 11 0 C10.34 0.66 9.68 1.32 9 2 C8.62826984 4.6182767 8.62826984 4.6182767 8.5859375 7.6640625 C8.54726562 8.78554687 8.50859375 9.90703125 8.46875 11.0625 C8.42234375 12.8259375 8.42234375 12.8259375 8.375 14.625 C8.33632812 15.80835937 8.29765625 16.99171875 8.2578125 18.2109375 C8.16331155 21.14046691 8.07775442 24.06998597 8 27 C7.67 27 7.34 27 7 27 C6.67 21.06 6.34 15.12 6 9 C5.67 9 5.34 9 5 9 C4.67 10.65 4.34 12.3 4 14 C-1.61 14 -7.22 14 -13 14 C-13 13.67 -13 13.34 -13 13 C-7.72 13 -2.44 13 3 13 C3 9.04 3 5.08 3 1 C2.01 0.67 1.02 0.34 0 0 Z " fill="#D8C6E1" transform="translate(165,67)"/>
<path d="M0 0 C6.75 -0.125 6.75 -0.125 9 1 C9 4.96 9 8.92 9 13 C6.03 13 3.06 13 0 13 C-0.1875 10.125 -0.1875 10.125 0 7 C3 5 3 5 7 5 C7 4.01 7 3.02 7 2 C4.69 2 2.38 2 0 2 C0 1.34 0 0.68 0 0 Z " fill="#A0A0A2" transform="translate(207,155)"/>
<path d="M0 0 C0 7.59 0 15.18 0 23 C0.99 23.33 1.98 23.66 3 24 C-0.3 24 -3.6 24 -7 24 C-5.68 23.67 -4.36 23.34 -3 23 C-3.33 17.06 -3.66 11.12 -4 5 C-5.98 5.99 -5.98 5.99 -8 7 C-8 6.34 -8 5.68 -8 5 C-2.52380952 0 -2.52380952 0 0 0 Z " fill="#E8BD3A" transform="translate(184,101)"/>
<path d="M0 0 C4.62 0 9.24 0 14 0 C14 0.33 14 0.66 14 1 C8.06 1.495 8.06 1.495 2 2 C1.01 4.97 0.02 7.94 -1 11 C0.32 11 1.64 11 3 11 C3 11.66 3 12.32 3 13 C-2.94 13 -8.88 13 -15 13 C-15 12.34 -15 11.68 -15 11 C-12.625 9.9375 -12.625 9.9375 -10 9 C-9.34 9.33 -8.68 9.66 -8 10 C-8 7.36 -8 4.72 -8 2 C-7.67 2 -7.34 2 -7 2 C-7 4.97 -7 7.94 -7 11 C-6.01 11 -5.02 11 -4 11 C-3.79503906 10.37351562 -3.59007812 9.74703125 -3.37890625 9.1015625 C-3.10949219 8.28429687 -2.84007812 7.46703125 -2.5625 6.625 C-2.29566406 5.81289062 -2.02882813 5.00078125 -1.75390625 4.1640625 C-1 2 -1 2 0 0 Z " fill="#DBCBE3" transform="translate(60,84)"/>
<path d="M0 0 C0.66 0 1.32 0 2 0 C2.33 2.31 2.66 4.62 3 7 C3.33 6.67 3.66 6.34 4 6 C6.4375 5.8125 6.4375 5.8125 9 6 C11 8 11 8 11.1953125 10.6015625 C11.17210937 11.59929687 11.14890625 12.59703125 11.125 13.625 C11.10695313 14.62789062 11.08890625 15.63078125 11.0703125 16.6640625 C11.03550781 17.82035156 11.03550781 17.82035156 11 19 C10.01 19 9.02 19 8 19 C8 15.37 8 11.74 8 8 C6.35 8.66 4.7 9.32 3 10 C2.67 12.97 2.34 15.94 2 19 C1.34 19 0.68 19 0 19 C0 12.73 0 6.46 0 0 Z " fill="#A5A5A7" transform="translate(15,149)"/>
<path d="M0 0 C2.97 0 5.94 0 9 0 C8.34 0.66 7.68 1.32 7 2 C6.62731113 4.91188245 6.62731113 4.91188245 6.5859375 8.3203125 C6.54726562 9.57714844 6.50859375 10.83398438 6.46875 12.12890625 C6.42234375 14.10697266 6.42234375 14.10697266 6.375 16.125 C6.33681971 17.46486918 6.29776794 18.80471383 6.2578125 20.14453125 C6.1632797 23.42954619 6.07772844 26.71455138 6 30 C5.34 29.67 4.68 29.34 4 29 C4.33 27.02 4.66 25.04 5 23 C4.34 23 3.68 23 3 23 C2.98018066 22.37432129 2.96036133 21.74864258 2.93994141 21.10400391 C2.84485774 18.27723481 2.73511254 15.45122185 2.625 12.625 C2.5940625 11.64015625 2.563125 10.6553125 2.53125 9.640625 C2.49257812 8.69960937 2.45390625 7.75859375 2.4140625 6.7890625 C2.3826416 5.91975098 2.3512207 5.05043945 2.31884766 4.15478516 C2.18770567 1.79038206 2.18770567 1.79038206 0 0 Z " fill="#D5C4DF" transform="translate(106,67)"/>
<path d="M0 0 C3 0.25 3 0.25 5 2.25 C5 3.57 5 4.89 5 6.25 C2.36 6.25 -0.28 6.25 -3 6.25 C-2.67 7.57 -2.34 8.89 -2 10.25 C0.31 10.58 2.62 10.91 5 11.25 C5 11.91 5 12.57 5 13.25 C-1.0546875 13.4453125 -1.0546875 13.4453125 -3 13.25 C-5 11.25 -5 11.25 -5.265625 9.15625 C-5.25789063 7.96515625 -5.25789063 7.96515625 -5.25 6.75 C-5.25515625 5.9559375 -5.2603125 5.161875 -5.265625 4.34375 C-4.80957894 0.74903399 -3.45860435 0.28821703 0 0 Z " fill="#939396" transform="translate(295,154.75)"/>
<path d="M0 0 C0.66 0 1.32 0 2 0 C2.33 4.95 2.66 9.9 3 15 C5.31 15 7.62 15 10 15 C10.33 10.05 10.66 5.1 11 0 C11.66 0 12.32 0 13 0 C13.0809723 2.43816585 13.14046972 4.87364384 13.1875 7.3125 C13.22520508 8.34793945 13.22520508 8.34793945 13.26367188 9.40429688 C13.33716617 14.47540295 13.33716617 14.47540295 11.7421875 16.95703125 C8.46501695 18.91892483 5.74912989 18.35705999 2 18 C-0.45391569 14.31912647 -0.22802759 11.55644412 -0.125 7.3125 C-0.11597656 6.61060547 -0.10695312 5.90871094 -0.09765625 5.18554688 C-0.07413704 3.45688475 -0.03826713 1.72839855 0 0 Z " fill="#979799" transform="translate(47,150)"/>
<path d="M0 0 C0.33 1.65 0.66 3.3 1 5 C-1.97 5 -4.94 5 -8 5 C-7.34 6.32 -6.68 7.64 -6 9 C-2.94091587 9.81584568 -2.94091587 9.81584568 0 10 C0 10.66 0 11.32 0 12 C-6.42210386 12.48468708 -6.42210386 12.48468708 -8.9375 10.375 C-10.295454 7.33957342 -10.42030443 5.29238472 -10 2 C-7.64463991 -2.2950684 -4.23605512 -0.87918125 0 0 Z " fill="#959597" transform="translate(38,156)"/>
<path d="M0 0 C5.40540541 1.40540541 5.40540541 1.40540541 7 3 C7.04080783 4.99958364 7.04254356 7.00045254 7 9 C4.23749964 10.38125018 2.05268901 10.19079306 -1 10 C-3 8 -3 8 -3.3125 5 C-3.209375 4.01 -3.10625 3.02 -3 2 C-2.01 1.34 -1.02 0.68 0 0 Z " fill="#6F378C" transform="translate(195,114)"/>
<path d="M0 0 C4.29 0.33 8.58 0.66 13 1 C13.33 1.99 13.66 2.98 14 4 C16.00016466 5.20882096 16.00016466 5.20882096 18 6 C16.77023437 6.09087891 16.77023437 6.09087891 15.515625 6.18359375 C13.89914062 6.30927734 13.89914062 6.30927734 12.25 6.4375 C11.18265625 6.51871094 10.1153125 6.59992188 9.015625 6.68359375 C6.56320038 6.94090773 4.36078709 7.31812218 2 8 C1.566875 7.0409375 1.566875 7.0409375 1.125 6.0625 C0.17176549 3.84793921 0.17176549 3.84793921 -2 3 C-1.34 2.01 -0.68 1.02 0 0 Z " fill="#713E95" transform="translate(260,61)"/>
<path d="M0 0 C0.66 0 1.32 0 2 0 C2.33 1.98 2.66 3.96 3 6 C3.969375 5.979375 4.93875 5.95875 5.9375 5.9375 C9 6 9 6 10 7 C10.07244053 9.01964199 10.08377188 11.04167124 10.0625 13.0625 C10.05347656 14.16722656 10.04445312 15.27195313 10.03515625 16.41015625 C10.02355469 17.26480469 10.01195312 18.11945313 10 19 C9.34 19 8.68 19 8 19 C8 15.37 8 11.74 8 8 C6.35 8.66 4.7 9.32 3 10 C2.67 12.97 2.34 15.94 2 19 C1.34 19 0.68 19 0 19 C0 12.73 0 6.46 0 0 Z " fill="#9E9EA0" transform="translate(245,149)"/>
<path d="M0 0 C0.66 0.33 1.32 0.66 2 1 C2.05607422 2.91425781 2.05607422 2.91425781 2.11328125 4.8671875 C2.17892791 6.53648838 2.2453757 8.20575789 2.3125 9.875 C2.33505859 10.71675781 2.35761719 11.55851562 2.38085938 12.42578125 C2.41630859 13.23144531 2.45175781 14.03710938 2.48828125 14.8671875 C2.51446533 15.61081543 2.54064941 16.35444336 2.56762695 17.12060547 C2.86729591 19.40733826 2.86729591 19.40733826 6 21 C2.37 21 -1.26 21 -5 21 C-4.01 20.34 -3.02 19.68 -2 19 C-1.41518879 16.11404054 -1.41518879 16.11404054 -1.3125 12.875 C-1.24675781 11.77929688 -1.18101562 10.68359375 -1.11328125 9.5546875 C-1.07589844 8.71164063 -1.03851563 7.86859375 -1 7 C-2.32 6.67 -3.64 6.34 -5 6 C-3.68 6 -2.36 6 -1 6 C-1.020625 5.195625 -1.04125 4.39125 -1.0625 3.5625 C-1 1 -1 1 0 0 Z " fill="#FBF8FB" transform="translate(170,75)"/>
<path d="M0 0 C1.32 0.33 2.64 0.66 4 1 C3.34 1.556875 2.68 2.11375 2 2.6875 C-0.20856841 4.82227542 -0.20856841 4.82227542 -0.375 7.5625 C-0.13662319 10.25194019 -0.13662319 10.25194019 2 13 C1.01 13 0.02 13 -1 13 C-1 13.66 -1 14.32 -1 15 C-4.96 14.67 -8.92 14.34 -13 14 C-13 13.67 -13 13.34 -13 13 C-11.329375 12.87625 -11.329375 12.87625 -9.625 12.75 C-6.02533306 12.39060215 -6.02533306 12.39060215 -4.5 10.25 C-3.89658788 7.53464544 -4.26111697 5.65997891 -5 3 C-4.34 3 -3.68 3 -3 3 C-2.67 2.34 -2.34 1.68 -2 1 C-2 1.66 -2 2.32 -2 3 C-1.34 3 -0.68 3 0 3 C0 2.01 0 1.02 0 0 Z " fill="#6E3692" transform="translate(190,112)"/>
<path d="M0 0 C3.48601782 0.1884334 4.78097461 0.78689421 7.3125 3.25 C9.16796937 6.27372786 9.62165984 7.53646661 9 11 C7.625 13.3125 7.625 13.3125 6 15 C5.34 15 4.68 15 4 15 C3.67 15.66 3.34 16.32 3 17 C2.01 16.34 1.02 15.68 0 15 C0.99 14.34 1.98 13.68 3 13 C3.63862317 9.9679783 3.53012905 7.04684697 3 4 C1.17728073 1.87644433 1.17728073 1.87644433 -1 1 C-0.67 0.67 -0.34 0.34 0 0 Z " fill="#F3EFF4" transform="translate(278,67)"/>
<path d="M0 0 C0.33 0 0.66 0 1 0 C1.89115181 8.68873018 2.11624638 17.26860536 2 26 C2.99 26 3.98 26 5 26 C5 26.66 5 27.32 5 28 C1.7 28 -1.6 28 -5 28 C-5 27.34 -5 26.68 -5 26 C-4.01 25.67 -3.02 25.34 -2 25 C-0.96912119 19.71566323 -0.68388642 14.48895352 -0.4375 9.125 C-0.37272461 7.80628906 -0.37272461 7.80628906 -0.30664062 6.4609375 C-0.20130661 4.30744203 -0.10022351 2.15373936 0 0 Z " fill="#D6C7E0" transform="translate(22,69)"/>
<path d="M0 0 C0.33 0 0.66 0 1 0 C1.04254356 1.99954746 1.04080783 4.00041636 1 6 C0 7 0 7 -3.32641602 7.11352539 C-4.80225556 7.11336629 -6.27810069 7.10767314 -7.75390625 7.09765625 C-8.52935287 7.0962413 -9.3047995 7.09482635 -10.10374451 7.09336853 C-12.59003494 7.08775345 -15.0762366 7.07519846 -17.5625 7.0625 C-19.24413933 7.05748694 -20.92578006 7.0529237 -22.60742188 7.04882812 C-26.73831566 7.03777913 -30.86914276 7.02050445 -35 7 C-35 6.67 -35 6.34 -35 6 C-32.62515638 5.83079995 -30.25016522 5.66457137 -27.875 5.5 C-27.20984375 5.45230469 -26.5446875 5.40460938 -25.859375 5.35546875 C-21.89764586 5.08358538 -17.97061445 4.95052194 -14 5 C-14 4.67 -14 4.34 -14 4 C-13.15695313 3.96261719 -12.31390625 3.92523438 -11.4453125 3.88671875 C-9.80175781 3.78810547 -9.80175781 3.78810547 -8.125 3.6875 C-7.03445312 3.62949219 -5.94390625 3.57148437 -4.8203125 3.51171875 C-3.88960937 3.34285156 -2.95890625 3.17398438 -2 3 C-1.34 2.01 -0.68 1.02 0 0 Z " fill="#B58977" transform="translate(200,90)"/>
<path d="M0 0 C3.05936637 3.75467691 5 7.08113061 5 12 C2.03 12 -0.94 12 -4 12 C-3.45660208 7.43545749 -2.20536179 4.0271824 0 0 Z " fill="#714193" transform="translate(68,71)"/>
<path d="M0 0 C3.5625 0.1875 3.5625 0.1875 5.5625 2.1875 C5.19568342 5.12203261 4.69812754 6.05187246 2.5625 8.1875 C-3.00568182 7.61931818 -3.00568182 7.61931818 -4.4375 6.1875 C-4.5625 3.6875 -4.5625 3.6875 -4.4375 1.1875 C-3.4375 0.1875 -3.4375 0.1875 0 0 Z " fill="#6F388C" transform="translate(196.4375,102.8125)"/>
<path d="M0 0 C6.93 0 13.86 0 21 0 C21 1.65 21 3.3 21 5 C20.34 4.67 19.68 4.34 19 4 C19 3.34 19 2.68 19 2 C17.906875 2.020625 16.81375 2.04125 15.6875 2.0625 C12 2 12 2 9 1 C9 7.93 9 14.86 9 22 C8.67 22 8.34 22 8 22 C8 15.4 8 8.8 8 2 C5.69 2 3.38 2 1 2 C0.67 2.66 0.34 3.32 0 4 C0 2.68 0 1.36 0 0 Z " fill="#D1A144" transform="translate(219,72)"/>
<path d="M0 0 C0.55816406 0.53238281 1.11632812 1.06476563 1.69140625 1.61328125 C2.2946875 2.16757813 2.89796875 2.721875 3.51953125 3.29296875 C4.37804687 4.10121094 4.37804687 4.10121094 5.25390625 4.92578125 C9.27543869 8.41296717 9.27543869 8.41296717 14.25390625 9.92578125 C14.25390625 10.58578125 14.25390625 11.24578125 14.25390625 11.92578125 C6.73745176 11.79155885 3.43749287 9.17817654 -1.74609375 3.92578125 C-2.57109375 3.12140625 -3.39609375 2.31703125 -4.24609375 1.48828125 C-4.74109375 0.97265625 -5.23609375 0.45703125 -5.74609375 -0.07421875 C-2.24813717 -1.38308215 -2.24813717 -1.38308215 0 0 Z " fill="#F0E8F3" transform="translate(283.74609375,85.07421875)"/>
<path d="M0 0 C0.66 0 1.32 0 2 0 C2.02505615 0.60062256 2.0501123 1.20124512 2.07592773 1.82006836 C2.1915528 4.52611437 2.31442936 7.23178283 2.4375 9.9375 C2.47681641 10.88302734 2.51613281 11.82855469 2.55664062 12.80273438 C2.59853516 13.70185547 2.64042969 14.60097656 2.68359375 15.52734375 C2.72025146 16.35999756 2.75690918 17.19265137 2.79467773 18.05053711 C2.79367103 20.00338858 2.79367103 20.00338858 4 21 C5.68183948 21.23287008 7.3712416 21.41264166 9.0625 21.5625 C9.98160156 21.64628906 10.90070313 21.73007813 11.84765625 21.81640625 C12.91306641 21.90728516 12.91306641 21.90728516 14 22 C14 22.33 14 22.66 14 23 C8.72 23 3.44 23 -2 23 C-1.505 21.515 -1.505 21.515 -1 20 C-0.8535286 18.44733347 -0.75305926 16.89004338 -0.68359375 15.33203125 C-0.64169922 14.43935547 -0.59980469 13.54667969 -0.55664062 12.62695312 C-0.51732422 11.69818359 -0.47800781 10.76941406 -0.4375 9.8125 C-0.37272461 8.40194336 -0.37272461 8.40194336 -0.30664062 6.96289062 C-0.20061335 4.64207146 -0.09854971 2.32114675 0 0 Z " fill="#FED62F" transform="translate(182,73)"/>
<path d="M0 0 C6.93359375 -0.09765625 6.93359375 -0.09765625 9 0 C10 1 10 1 10.09765625 3.72265625 C10.08605469 4.82480469 10.07445313 5.92695313 10.0625 7.0625 C10.05347656 8.16722656 10.04445313 9.27195313 10.03515625 10.41015625 C10.02355469 11.26480469 10.01195313 12.11945313 10 13 C9.34 13 8.68 13 8 13 C8 9.37 8 5.74 8 2 C6.35 2.66 4.7 3.32 3 4 C2.67 6.97 2.34 9.94 2 13 C1.34 13 0.68 13 0 13 C0 8.71 0 4.42 0 0 Z " fill="#969698" transform="translate(64,155)"/>
<path d="M0 0 C0.66 0 1.32 0 2 0 C2 1.32 2 2.64 2 4 C3.32 4 4.64 4 6 4 C6 4.66 6 5.32 6 6 C5.01 6 4.02 6 3 6 C3 8.97 3 11.94 3 15 C3.99 15 4.98 15 6 15 C6 15.66 6 16.32 6 17 C4.33388095 17.042721 2.66617115 17.04063832 1 17 C0 16 0 16 -0.09765625 13.71484375 C-0.08025391 12.34005859 -0.08025391 12.34005859 -0.0625 10.9375 C-0.05347656 10.01839844 -0.04445313 9.09929687 -0.03515625 8.15234375 C-0.02355469 7.44207031 -0.01195312 6.73179687 0 6 C-0.66 6 -1.32 6 -2 6 C-2 5.34 -2 4.68 -2 4 C-1.34 4 -0.68 4 0 4 C0 2.68 0 1.36 0 0 Z " fill="#A3A3A5" transform="translate(282,151)"/>
<path d="M0 0 C6.0546875 -0.1953125 6.0546875 -0.1953125 8 0 C10 2 10 2 10.1953125 4.6015625 C10.17210937 5.59929687 10.14890625 6.59703125 10.125 7.625 C10.10695312 8.62789062 10.08890625 9.63078125 10.0703125 10.6640625 C10.03550781 11.82035156 10.03550781 11.82035156 10 13 C9.34 13 8.68 13 8 13 C8 9.37 8 5.74 8 2 C6.35 2 4.7 2 3 2 C2.67 5.63 2.34 9.26 2 13 C1.34 13 0.68 13 0 13 C0 8.71 0 4.42 0 0 Z " fill="#979799" transform="translate(220,155)"/>
<path d="M0 0 C0.66 0 1.32 0 2 0 C2.804375 1.2065625 2.804375 1.2065625 3.625 2.4375 C6.453846 5.48967595 7.94475785 5.87059829 11.97265625 6.140625 C16.03925561 5.85854874 18.91489665 3.97659302 21.875 1.3125 C22.24625 0.879375 22.6175 0.44625 23 0 C22.3125 2.875 22.3125 2.875 21 6 C15.88774258 8.67191154 10.63267525 8.69274483 5 8 C1.84758786 6.70230801 -0.43812869 5.12374262 -2 2 C-1.34 2 -0.68 2 0 2 C0 1.34 0 0.68 0 0 Z " fill="#EBE2F0" transform="translate(120,89)"/>
<path d="M0 0 C1.2065625 0.0309375 1.2065625 0.0309375 2.4375 0.0625 C2.4375 0.7225 2.4375 1.3825 2.4375 2.0625 C1.4784375 2.2171875 1.4784375 2.2171875 0.5 2.375 C-0.180625 2.601875 -0.86125 2.82875 -1.5625 3.0625 C-1.8925 4.0525 -2.2225 5.0425 -2.5625 6.0625 C-1.2425 6.0625 0.0775 6.0625 1.4375 6.0625 C1.4375 6.7225 1.4375 7.3825 1.4375 8.0625 C0.1175 8.0625 -1.2025 8.0625 -2.5625 8.0625 C-2.5625 11.6925 -2.5625 15.3225 -2.5625 19.0625 C-3.2225 19.0625 -3.8825 19.0625 -4.5625 19.0625 C-4.5625 15.4325 -4.5625 11.8025 -4.5625 8.0625 C-5.5525 8.0625 -6.5425 8.0625 -7.5625 8.0625 C-7.5625 7.4025 -7.5625 6.7425 -7.5625 6.0625 C-6.5725 6.0625 -5.5825 6.0625 -4.5625 6.0625 C-4.418125 5.258125 -4.27375 4.45375 -4.125 3.625 C-3.347189 0.08163876 -3.347189 0.08163876 0 0 Z " fill="#98989A" transform="translate(176.5625,148.9375)"/>
<path d="M0 0 C1.4540625 0.0309375 1.4540625 0.0309375 2.9375 0.0625 C3.03515625 6.21484375 3.03515625 6.21484375 2.9375 8.0625 C1.9375 9.0625 1.9375 9.0625 -0.625 9.125 C-1.429375 9.104375 -2.23375 9.08375 -3.0625 9.0625 C-4.42873674 6.33002652 -4.190926 4.08051098 -4.0625 1.0625 C-3.0625 0.0625 -3.0625 0.0625 0 0 Z " fill="#F6F6F7" transform="translate(163.0625,156.9375)"/>
<path d="M0 0 C0.33 0 0.66 0 1 0 C1.88021369 6.71162938 2.11381955 13.23405981 2 20 C1.01 19.67 0.02 19.34 -1 19 C-1.97352262 13.40224495 -2.61204357 7.67437001 -2 2 C-1.34 1.34 -0.68 0.68 0 0 Z " fill="#FDFDFA" transform="translate(50,74)"/>
<path d="M0 0 C1.4540625 0.0309375 1.4540625 0.0309375 2.9375 0.0625 C2.9375 0.7225 2.9375 1.3825 2.9375 2.0625 C1.2875 2.0625 -0.3625 2.0625 -2.0625 2.0625 C-2.0625 3.0525 -2.0625 4.0425 -2.0625 5.0625 C-0.4125 5.3925 1.2375 5.7225 2.9375 6.0625 C3.5625 8.4375 3.5625 8.4375 3.9375 11.0625 C1.9375 13.0625 1.9375 13.0625 -1.1875 13.1875 C-2.610625 13.125625 -2.610625 13.125625 -4.0625 13.0625 C-4.0625 12.4025 -4.0625 11.7425 -4.0625 11.0625 C-2.4125 11.0625 -0.7625 11.0625 0.9375 11.0625 C0.9375 10.0725 0.9375 9.0825 0.9375 8.0625 C-1.5375 7.0725 -1.5375 7.0725 -4.0625 6.0625 C-4.105221 4.39638095 -4.10313832 2.72867115 -4.0625 1.0625 C-3.0625 0.0625 -3.0625 0.0625 0 0 Z " fill="#9E9EA1" transform="translate(275.0625,154.9375)"/>
<path d="M0 0 C0.94875 0.04125 1.8975 0.0825 2.875 0.125 C2.875 0.785 2.875 1.445 2.875 2.125 C1.225 2.125 -0.425 2.125 -2.125 2.125 C-2.125 3.115 -2.125 4.105 -2.125 5.125 C-1.1659375 5.3415625 -1.1659375 5.3415625 -0.1875 5.5625 C1.875 6.125 1.875 6.125 2.875 7.125 C2.91563832 8.79117115 2.917721 10.45888095 2.875 12.125 C0.16620665 13.47939668 -2.13433268 13.19001451 -5.125 13.125 C-5.125 12.465 -5.125 11.805 -5.125 11.125 C-3.145 11.125 -1.165 11.125 0.875 11.125 C0.875 10.135 0.875 9.145 0.875 8.125 C0.070625 7.8775 -0.73375 7.63 -1.5625 7.375 C-4.125 6.125 -4.125 6.125 -5.0625 4.125 C-5.083125 3.465 -5.10375 2.805 -5.125 2.125 C-3.125 0.125 -3.125 0.125 0 0 Z " fill="#A2A2A5" transform="translate(120.125,154.875)"/>
<path d="M0 0 C0.99 0.33 1.98 0.66 3 1 C4.6875 4.5625 4.6875 4.5625 6 8 C6.99 5.36 7.98 2.72 9 0 C9.66 0 10.32 0 11 0 C10.27991594 4.60853797 8.68704061 8.67237409 7 13 C6.01 13 5.02 13 4 13 C3.32942113 11.2097939 2.6636531 9.41778511 2 7.625 C1.62875 6.62726563 1.2575 5.62953125 0.875 4.6015625 C0 2 0 2 0 0 Z " fill="#98989A" transform="translate(82,155)"/>
<path d="M0 0 C0.598125 0.226875 1.19625 0.45375 1.8125 0.6875 C0.8534375 1.120625 0.8534375 1.120625 -0.125 1.5625 C-2.33956079 2.51573451 -2.33956079 2.51573451 -3.1875 4.6875 C-0.8775 4.6875 1.4325 4.6875 3.8125 4.6875 C4.1425 4.0275 4.4725 3.3675 4.8125 2.6875 C4.8125 3.6775 4.8125 4.6675 4.8125 5.6875 C2.1725 5.6875 -0.4675 5.6875 -3.1875 5.6875 C-2.8575 7.3375 -2.5275 8.9875 -2.1875 10.6875 C0.1225 10.6875 2.4325 10.6875 4.8125 10.6875 C4.8125 11.3475 4.8125 12.0075 4.8125 12.6875 C3.53375 12.749375 2.255 12.81125 0.9375 12.875 C0.21820313 12.90980469 -0.50109375 12.94460937 -1.2421875 12.98046875 C-1.88414062 12.88378906 -2.52609375 12.78710938 -3.1875 12.6875 C-5.65074069 8.99263897 -5.57741688 7.05456908 -5.1875 2.6875 C-3.58118253 0.11739205 -3.03484548 -0.43354935 0 0 Z " fill="#939395" transform="translate(263.1875,155.3125)"/>
<path d="M0 0 C0.598125 0.226875 1.19625 0.45375 1.8125 0.6875 C0.8534375 1.120625 0.8534375 1.120625 -0.125 1.5625 C-2.33956079 2.51573451 -2.33956079 2.51573451 -3.1875 4.6875 C-0.8775 4.6875 1.4325 4.6875 3.8125 4.6875 C4.1425 4.0275 4.4725 3.3675 4.8125 2.6875 C4.8125 3.6775 4.8125 4.6675 4.8125 5.6875 C2.1725 5.6875 -0.4675 5.6875 -3.1875 5.6875 C-2.8575 7.3375 -2.5275 8.9875 -2.1875 10.6875 C0.1225 10.6875 2.4325 10.6875 4.8125 10.6875 C4.8125 11.3475 4.8125 12.0075 4.8125 12.6875 C-1.8125 12.9375 -1.8125 12.9375 -5.1875 10.6875 C-5.84593621 3.77391975 -5.84593621 3.77391975 -3.9375 0.625 C-2.1875 -0.3125 -2.1875 -0.3125 0 0 Z " fill="#949496" transform="translate(99.1875,155.3125)"/>
<path d="M0 0 C2.97 0.495 2.97 0.495 6 1 C6.3125 3.8125 6.3125 3.8125 6 7 C3.5 8.875 3.5 8.875 1 10 C0.38125 9.05125 -0.2375 8.1025 -0.875 7.125 C-2.81970969 4.05554891 -2.81970969 4.05554891 -5 2 C-3.35 2 -1.7 2 0 2 C0 1.34 0 0.68 0 0 Z " fill="#6A3390" transform="translate(205,110)"/>
<path d="M0 0 C0.19448477 2.12437212 0.38038289 4.24953191 0.5625 6.375 C0.66691406 7.55835937 0.77132812 8.74171875 0.87890625 9.9609375 C1 13 1 13 0 15 C-0.99 14.67 -1.98 14.34 -3 14 C-3.92556607 11.22330178 -4.19295491 9.32303105 -4.25 6.4375 C-4.27578125 5.65246094 -4.3015625 4.86742188 -4.328125 4.05859375 C-4.21984375 3.37925781 -4.1115625 2.69992188 -4 2 C-1 0 -1 0 0 0 Z " fill="#FAF6FA" transform="translate(120,76)"/>
<path d="M0 0 C0.33 0 0.66 0 1 0 C1.33 7.26 1.66 14.52 2 22 C0.68 22.33 -0.64 22.66 -2 23 C-1.34 22.67 -0.68 22.34 0 22 C-0.08693141 20.20741442 -0.19510504 18.41584856 -0.3125 16.625 C-0.37050781 15.62726563 -0.42851563 14.62953125 -0.48828125 13.6015625 C-0.65714844 12.74304688 -0.82601562 11.88453125 -1 11 C-1.99 10.34 -2.98 9.68 -4 9 C-2.68 6.03 -1.36 3.06 0 0 Z " fill="#774B98" transform="translate(47,72)"/>
<path d="M0 0 C0 0.66 0 1.32 0 2 C-1.98 2 -3.96 2 -6 2 C-6 4.97 -6 7.94 -6 11 C-4.02 11 -2.04 11 0 11 C0 11.66 0 12.32 0 13 C-3.375 13.1875 -3.375 13.1875 -7 13 C-9.46324069 9.30513897 -9.38991688 7.36706908 -9 3 C-6.82246161 -0.75020501 -4.02857537 -0.26857169 0 0 Z " fill="#99999C" transform="translate(242,155)"/>
<path d="M0 0 C4.95 0 9.9 0 15 0 C15 0.33 15 0.66 15 1 C12.36 1 9.72 1 7 1 C7 4.96 7 8.92 7 13 C6.01 13.495 6.01 13.495 5 14 C4.89042969 13.15695313 4.78085937 12.31390625 4.66796875 11.4453125 C4.43013672 9.80175781 4.43013672 9.80175781 4.1875 8.125 C3.96126953 6.48917969 3.96126953 6.48917969 3.73046875 4.8203125 C3.25334259 1.68761154 3.25334259 1.68761154 0 0 Z " fill="#FAF7FA" transform="translate(263,67)"/>
<path d="M0 0 C1.32 0.66 2.64 1.32 4 2 C3.67 2.33 3.34 2.66 3 3 C9.93 3.495 9.93 3.495 17 4 C17 4.33 17 4.66 17 5 C10.565 5.495 10.565 5.495 4 6 C3.67 6.99 3.34 7.98 3 9 C2.34 9 1.68 9 1 9 C1 8.01 1 7.02 1 6 C-0.65 5.67 -2.3 5.34 -4 5 C-2.68 3.35 -1.36 1.7 0 0 Z " fill="#7D4385" transform="translate(204,121)"/>
<path d="M0 0 C0.33 0 0.66 0 1 0 C1 4.29 1 8.58 1 13 C2.32 13 3.64 13 5 13 C5 13.66 5 14.32 5 15 C1.04 15 -2.92 15 -7 15 C-7 14.34 -7 13.68 -7 13 C-5.68 13 -4.36 13 -3 13 C-3 12.01 -3 11.02 -3 10 C-2.01 10 -1.02 10 0 10 C0 6.7 0 3.4 0 0 Z " fill="#DAC8E2" transform="translate(151,82)"/>
<path d="M0 0 C0.33 0.66 0.66 1.32 1 2 C1.66 2 2.32 2 3 2 C3 1.34 3 0.68 3 0 C3.66 0 4.32 0 5 0 C5.33 0.99 5.66 1.98 6 3 C5.01 3.33 4.02 3.66 3 4 C2.19436362 6.10584438 2.19436362 6.10584438 1.8125 8.5625 C1.65394531 9.38878906 1.49539062 10.21507813 1.33203125 11.06640625 C1.22246094 11.70449219 1.11289063 12.34257813 1 13 C-1.03833424 11.7260411 -3.03852126 10.38938077 -5 9 C-5 8.34 -5 7.68 -5 7 C-3.35 7 -1.7 7 0 7 C-0.185625 6.401875 -0.37125 5.80375 -0.5625 5.1875 C-1 3 -1 3 0 0 Z " fill="#7A4286" transform="translate(217,74)"/>
<path d="M0 0 C2.875 -0.1875 2.875 -0.1875 6 0 C8 3 8 3 7.8125 6 C6.99790027 9.00775285 6.4044979 10.11821903 4 12 C3.34 11.34 2.68 10.68 2 10 C2.4375 7.9375 2.4375 7.9375 3 6 C2.67 5.67 2.34 5.34 2 5 C3.32 4.34 4.64 3.68 6 3 C4.02 2.34 2.04 1.68 0 1 C0 0.67 0 0.34 0 0 Z " fill="#6F368C" transform="translate(210,104)"/>
<path d="M0 0 C6.75 -0.125 6.75 -0.125 9 1 C9 4.96 9 8.92 9 13 C8.34 12.34 7.68 11.68 7 11 C7 9.68 7 8.36 7 7 C5.68 7 4.36 7 3 7 C3 6.34 3 5.68 3 5 C4.32 5 5.64 5 7 5 C7 4.01 7 3.02 7 2 C4.69 2 2.38 2 0 2 C0 1.34 0 0.68 0 0 Z " fill="#97979A" transform="translate(207,155)"/>
<path d="M0 0 C3.96 0 7.92 0 12 0 C11.01 0.66 10.02 1.32 9 2 C8.41651248 4.6556728 8.41651248 4.6556728 8.3125 7.625 C8.24675781 8.62789062 8.18101562 9.63078125 8.11328125 10.6640625 C8.07589844 11.43492188 8.03851563 12.20578125 8 13 C7.67 13 7.34 13 7 13 C6.87625 12.030625 6.7525 11.06125 6.625 10.0625 C6.315625 8.5465625 6.315625 8.5465625 6 7 C5.34 6.67 4.68 6.34 4 6 C4 4.68 4 3.36 4 2 C2.68 1.34 1.36 0.68 0 0 Z " fill="#E4D8EB" transform="translate(144,67)"/>
<path d="M0 0 C1.55078125 1.578125 1.55078125 1.578125 3 4 C2.85546875 7.234375 2.85546875 7.234375 2.1875 10.75 C1.97480469 11.92046875 1.76210937 13.0909375 1.54296875 14.296875 C1.36378906 15.18890625 1.18460938 16.0809375 1 17 C0.01 17 -0.98 17 -2 17 C-1.85848172 14.9163691 -1.71162064 12.83310062 -1.5625 10.75 C-1.48128906 9.58984375 -1.40007812 8.4296875 -1.31640625 7.234375 C-1.06752213 4.69022624 -0.71885058 2.44046752 0 0 Z " fill="#A4A4A6" transform="translate(186,151)"/>
<path d="M0 0 C0.66 0 1.32 0 2 0 C2.8931507 6.58183362 2.95494281 12.42150508 2 19 C1.34 19 0.68 19 0 19 C0 12.73 0 6.46 0 0 Z " fill="#939395" transform="translate(15,149)"/>
<path d="M0 0 C0.99 0 1.98 0 3 0 C3 4.29 3 8.58 3 13 C2.01 13 1.02 13 0 13 C0 8.71 0 4.42 0 0 Z " fill="#AFAFB2" transform="translate(126,155)"/>
<path d="M0 0 C3 1 3 1 4.75 4.3125 C6.33072237 8.97563098 6.33072237 8.97563098 5 12 C4.34 12 3.68 12 3 12 C-0.42857143 4.71428571 -0.42857143 4.71428571 0 0 Z " fill="#F6F2F8" transform="translate(32,84)"/>
<path d="M0 0 C0.33 0 0.66 0 1 0 C1 6.6 1 13.2 1 20 C0.01 20 -0.98 20 -2 20 C-2 17.69 -2 15.38 -2 13 C-2.66 12.67 -3.32 12.34 -4 12 C-3.01 11.67 -2.02 11.34 -1 11 C-1.020625 9.9275 -1.04125 8.855 -1.0625 7.75 C-1.0142016 4.85209576 -0.86844115 2.71387859 0 0 Z " fill="#652E8B" transform="translate(146,75)"/>
<path d="M0 0 C0.350625 0.639375 0.70125 1.27875 1.0625 1.9375 C3.7986655 4.8501923 6.10351179 4.78746428 10 5 C12.51083114 3.74458443 12.87125446 2.49936512 14 0 C14 0.99 14 1.98 14 3 C14.66 3.33 15.32 3.66 16 4 C12.89779373 6.74148461 10.99544625 7.3729984 6.875 7.25 C6.00617188 7.23453125 5.13734375 7.2190625 4.2421875 7.203125 C2 7 2 7 0 6 C0 4.02 0 2.04 0 0 Z " fill="#E0B440" transform="translate(202,90)"/>
<path d="M0 0 C0.33 0 0.66 0 1 0 C1 2.97 1 5.94 1 9 C-1.31 9 -3.62 9 -6 9 C-2.25 2.25 -2.25 2.25 0 0 Z " fill="#693390" transform="translate(231,107)"/>
<path d="M0 0 C0.33 0.99 0.66 1.98 1 3 C-2.36512394 5.24341596 -2.89614381 4.97757636 -6.6171875 4.29296875 C-12.03197461 3.62721624 -17.55302998 3.93200731 -23 4 C-23 3.67 -23 3.34 -23 3 C-21.67935547 2.90912109 -21.67935547 2.90912109 -20.33203125 2.81640625 C-19.17058594 2.73261719 -18.00914062 2.64882812 -16.8125 2.5625 C-15.08966797 2.44068359 -15.08966797 2.44068359 -13.33203125 2.31640625 C-10.08079288 2.06756332 -10.08079288 2.06756332 -7.25 1.4375 C-4.57410343 0.91718678 -2.61879527 1.3265955 0 2 C0 1.34 0 0.68 0 0 Z " fill="#632E88" transform="translate(286,94)"/>
<path d="M0 0 C7.59 0 15.18 0 23 0 C23 1.98 23 3.96 23 6 C22.34 6 21.68 6 21 6 C20.67 4.68 20.34 3.36 20 2 C18.08574219 2.03480469 18.08574219 2.03480469 16.1328125 2.0703125 C14.4635475 2.08906829 12.7942762 2.10726869 11.125 2.125 C9.86236328 2.15013672 9.86236328 2.15013672 8.57421875 2.17578125 C7.76855469 2.18222656 6.96289062 2.18867187 6.1328125 2.1953125 C5.38918457 2.20578613 4.64555664 2.21625977 3.87939453 2.22705078 C2 2 2 2 0 0 Z " fill="#D2A345" transform="translate(177,67)"/>
<path d="M0 0 C1.3921875 0.2784375 1.3921875 0.2784375 2.8125 0.5625 C3.4725 1.5525 4.1325 2.5425 4.8125 3.5625 C3.8225 5.0475 3.8225 5.0475 2.8125 6.5625 C2.4825 5.9025 2.1525 5.2425 1.8125 4.5625 C-1.10384129 4.3122843 -1.10384129 4.3122843 -4.1875 4.5625 C-5.1775 6.0475 -5.1775 6.0475 -6.1875 7.5625 C-6.8475 7.2325 -7.5075 6.9025 -8.1875 6.5625 C-4.04464286 0.7137605 -4.04464286 0.7137605 0 0 Z " fill="#E1B440" transform="translate(214.1875,100.4375)"/>
<path d="M0 0 C2 0 4 0 6 0 C6 0.66 6 1.32 6 2 C5.01 2.66 4.02 3.32 3 4 C2.42006301 6.19454681 2.42006301 6.19454681 2.3125 8.625 C2.21388672 9.85089844 2.21388672 9.85089844 2.11328125 11.1015625 C2.05720703 12.04128906 2.05720703 12.04128906 2 13 C1.34 13 0.68 13 0 13 C0 8.71 0 4.42 0 0 Z " fill="#949496" transform="translate(303,155)"/>
<path d="M0 0 C1.98 0 3.96 0 6 0 C6 0.66 6 1.32 6 2 C5.01 2.33 4.02 2.66 3 3 C2.67 6.3 2.34 9.6 2 13 C1.34 13 0.68 13 0 13 C0 8.71 0 4.42 0 0 Z " fill="#99999C" transform="translate(108,155)"/>
<path d="M0 0 C1.0725 0.103125 2.145 0.20625 3.25 0.3125 C2.92 0.9725 2.59 1.6325 2.25 2.3125 C-0.8125 2.9375 -0.8125 2.9375 -3.75 3.3125 C-3.75 5.2925 -3.75 7.2725 -3.75 9.3125 C-4.74 9.6425 -5.73 9.9725 -6.75 10.3125 C-7.5 8.125 -7.5 8.125 -7.75 5.3125 C-5.5878604 1.25848826 -4.64600217 0.38716685 0 0 Z " fill="#D4A546" transform="translate(196.75,100.6875)"/>
<path d="M0 0 C1.98 0 3.96 0 6 0 C6 1.65 6 3.3 6 5 C0.25 5.125 0.25 5.125 -2 4 C-1.34 2.68 -0.68 1.36 0 0 Z " fill="#C4C5C6" transform="translate(292,155)"/>
<path d="M0 0 C0.33 0 0.66 0 1 0 C1 2.64 1 5.28 1 8 C1.66 8 2.32 8 3 8 C2.67 11.63 2.34 15.26 2 19 C1.34 19 0.68 19 0 19 C0 12.73 0 6.46 0 0 Z " fill="#919193" transform="translate(245,149)"/>
<path d="M0 0 C0.8971875 0.5259375 0.8971875 0.5259375 1.8125 1.0625 C1.4825 2.3825 1.1525 3.7025 0.8125 5.0625 C0.4825 4.7325 0.1525 4.4025 -0.1875 4.0625 C-2.52047433 4.02157063 -4.85455225 4.02008277 -7.1875 4.0625 C-6.375 2.125 -6.375 2.125 -5.1875 0.0625 C-2.1875 -0.9375 -2.1875 -0.9375 0 0 Z " fill="#C9CACB" transform="translate(103.1875,155.9375)"/>
<path d="M0 0 C1.32 0 2.64 0 4 0 C2.84238599 3.47284204 1.63938846 6.72122308 0 10 C-2.1875 10.9375 -2.1875 10.9375 -4 11 C-4 10.34 -4 9.68 -4 9 C-3.34 9 -2.68 9 -2 9 C-1.34 6.03 -0.68 3.06 0 0 Z " fill="#A5A5A7" transform="translate(197,154)"/>
<path d="M0 0 C2.5625 0.25 2.5625 0.25 5 1 C5.33 1.66 5.66 2.32 6 3 C5.01 3 4.02 3 3 3 C3 3.66 3 4.32 3 5 C-0.96 4.67 -4.92 4.34 -9 4 C-9 3.67 -9 3.34 -9 3 C-7.88625 2.87625 -6.7725 2.7525 -5.625 2.625 C-1.96896323 2.3534187 -1.96896323 2.3534187 0 0 Z " fill="#804683" transform="translate(186,122)"/>
<path d="M0 0 C3 1.625 3 1.625 6 4 C6.375 7.25 6.375 7.25 6 10 C5.34 10 4.68 10 4 10 C1.46093936 7.38626111 0.07743148 5.87110419 -0.25 2.1875 C-0.1675 1.465625 -0.085 0.74375 0 0 Z " fill="#F8F5F8" transform="translate(105,86)"/>
<path d="M0 0 C0.33 0 0.66 0 1 0 C1 2.31 1 4.62 1 7 C0.34 6.34 -0.32 5.68 -1 5 C-3.43252661 4.53837573 -3.43252661 4.53837573 -6.125 4.375 C-7.03507813 4.30023438 -7.94515625 4.22546875 -8.8828125 4.1484375 C-9.58148438 4.09945312 -10.28015625 4.05046875 -11 4 C-11 3.34 -11 2.68 -11 2 C-10.28972656 1.93941406 -9.57945312 1.87882812 -8.84765625 1.81640625 C-7.46900391 1.69072266 -7.46900391 1.69072266 -6.0625 1.5625 C-5.14597656 1.48128906 -4.22945312 1.40007812 -3.28515625 1.31640625 C-1.03840268 1.23955024 -1.03840268 1.23955024 0 0 Z " fill="#E9DCEF" transform="translate(257,78)"/>
<path d="M0 0 C2.31 0.66 4.62 1.32 7 2 C7 2.66 7 3.32 7 4 C4.69 4 2.38 4 0 4 C-0.66 5.32 -1.32 6.64 -2 8 C-2.125 5.125 -2.125 5.125 -2 2 C-1.34 1.34 -0.68 0.68 0 0 Z " fill="#C7C8C9" transform="translate(30,156)"/>
<path d="M0 0 C0.33 0 0.66 0 1 0 C1 4.95 1 9.9 1 15 C1.99 15 2.98 15 4 15 C4 15.66 4 16.32 4 17 C3.01 17 2.02 17 1 17 C1 18.98 1 20.96 1 23 C0.67 23 0.34 23 0 23 C-1.41722796 15.2839811 -0.65647386 7.75649113 0 0 Z " fill="#DAAC42" transform="translate(234,102)"/>
<path d="M0 0 C0.66 0.33 1.32 0.66 2 1 C0.66666667 5 -0.66666667 9 -2 13 C-2.99 13 -3.98 13 -5 13 C-4.54554036 11.58208592 -4.08625056 10.16571954 -3.625 8.75 C-3.24214844 7.56664063 -3.24214844 7.56664063 -2.8515625 6.359375 C-2.04826333 4.13372042 -1.10288338 2.09068328 0 0 Z " fill="#E6D9EC" transform="translate(66,70)"/>
<path d="M0 0 C0.66 0 1.32 0 2 0 C2 1.65 2 3.3 2 5 C3.65 5 5.3 5 7 5 C6.67 5.66 6.34 6.32 6 7 C3.03 7 0.06 7 -3 7 C-3 6.34 -3 5.68 -3 5 C-2.01 5 -1.02 5 0 5 C0 3.35 0 1.7 0 0 Z " fill="#A0A0A3" transform="translate(133,150)"/>
<path d="M0 0 C0.94875 0.350625 1.8975 0.70125 2.875 1.0625 C1.555 3.3725 0.235 5.6825 -1.125 8.0625 C-3.125 5.0625 -3.125 5.0625 -3.125 2.0625 C-3.785 1.4025 -4.445 0.7425 -5.125 0.0625 C-3.125 -0.9375 -3.125 -0.9375 0 0 Z " fill="#723F94" transform="translate(118.125,67.9375)"/>
<path d="M0 0 C0.33 0 0.66 0 1 0 C2.3260274 5.42465753 2.3260274 5.42465753 0.9375 7.875 C-1.75900247 9.44071111 -3.94130459 9.20391303 -7 9 C-7.33 7.68 -7.66 6.36 -8 5 C-7.34 5 -6.68 5 -6 5 C-6 5.66 -6 6.32 -6 7 C-4.35 6.67 -2.7 6.34 -1 6 C-0.67 4.02 -0.34 2.04 0 0 Z " fill="#9E9EA0" transform="translate(166,159)"/>
<path d="M0 0 C2.475 0.99 2.475 0.99 5 2 C5.3125 4.25 5.3125 4.25 5 7 C2.5 9.3125 2.5 9.3125 0 11 C-0.66 10.34 -1.32 9.68 -2 9 C-0.68 8.01 0.64 7.02 2 6 C1.49396008 3.83125748 1.00016187 2.00032373 0 0 Z " fill="#E2B73E" transform="translate(199,102)"/>
<path d="M0 0 C0.33 0 0.66 0 1 0 C1 1.98 1 3.96 1 6 C-3.95 5.67 -8.9 5.34 -14 5 C-14 4.67 -14 4.34 -14 4 C-13.15695313 3.96261719 -12.31390625 3.92523438 -11.4453125 3.88671875 C-9.80175781 3.78810547 -9.80175781 3.78810547 -8.125 3.6875 C-7.03445312 3.62949219 -5.94390625 3.57148437 -4.8203125 3.51171875 C-3.88960937 3.34285156 -2.95890625 3.17398438 -2 3 C-1.34 2.01 -0.68 1.02 0 0 Z " fill="#CA9852" transform="translate(200,90)"/>
<path d="M0 0 C1.875 0.25 1.875 0.25 4 1 C5.25 3.0625 5.25 3.0625 6 5 C5.34 5.66 4.68 6.32 4 7 C2.02 6.34 0.04 5.68 -2 5 C-1.67 4.01 -1.34 3.02 -1 2 C-0.01 2 0.98 2 2 2 C1.34 1.34 0.68 0.68 0 0 Z " fill="#683288" transform="translate(134,69)"/>
<path d="M0 0 C1.32 0.33 2.64 0.66 4 1 C4 2.65 4 4.3 4 6 C1.29120665 7.35439668 -1.00933268 7.06501451 -4 7 C-4 6.34 -4 5.68 -4 5 C-2.02 5 -0.04 5 2 5 C2 4.01 2 3.02 2 2 C1.34 2 0.68 2 0 2 C0 1.34 0 0.68 0 0 Z " fill="#9A9A9C" transform="translate(119,161)"/>
<path d="M0 0 C0.99 0.99 1.98 1.98 3 3 C2.67 3.66 2.34 4.32 2 5 C-0.31 5 -2.62 5 -5 5 C-4.1875 3.0625 -4.1875 3.0625 -3 1 C-2.01 0.67 -1.02 0.34 0 0 Z " fill="#CBCACC" transform="translate(265,155)"/>
<path d="M0 0 C0.33 0 0.66 0 1 0 C1.40178571 8.03571429 1.40178571 8.03571429 -2 12 C-2.05395478 10.37536158 -2.09277195 8.75021459 -2.125 7.125 C-2.14820313 6.22007813 -2.17140625 5.31515625 -2.1953125 4.3828125 C-2 2 -2 2 0 0 Z " fill="#F6F0F6" transform="translate(50,74)"/>
<path d="M0 0 C0.89847656 0.00257812 1.79695312 0.00515625 2.72265625 0.0078125 C3.61855469 0.00523438 4.51445312 0.00265625 5.4375 0 C7.78515625 0.1328125 7.78515625 0.1328125 9.78515625 1.1328125 C9.45515625 2.4528125 9.12515625 3.7728125 8.78515625 5.1328125 C8.41390625 4.6378125 8.04265625 4.1428125 7.66015625 3.6328125 C5.03821232 1.53525736 3.04673153 1.91537415 -0.21484375 2.1328125 C-0.87484375 3.4528125 -1.53484375 4.7728125 -2.21484375 6.1328125 C-2.59703142 4.47666593 -2.92879477 2.80824226 -3.21484375 1.1328125 C-2.21484375 0.1328125 -2.21484375 0.1328125 0 0 Z " fill="#DEB33F" transform="translate(207.21484375,71.8671875)"/>
<path d="M0 0 C0.99 0 1.98 0 3 0 C3 3.63 3 7.26 3 11 C1.02 11 -0.96 11 -3 11 C-3 10.34 -3 9.68 -3 9 C-1.68 8.67 -0.36 8.34 1 8 C0.79375 7.401875 0.5875 6.80375 0.375 6.1875 C0 4 0 4 2 1 C1.34 0.67 0.68 0.34 0 0 Z " fill="#622E85" transform="translate(165,69)"/>
<path d="M0 0 C1.32 0.33 2.64 0.66 4 1 C4 3.31 4 5.62 4 8 C2.68 7.67 1.36 7.34 0 7 C0 4.69 0 2.38 0 0 Z " fill="#65328B" transform="translate(112,69)"/>
<path d="M0 0 C1.98 0 3.96 0 6 0 C5.34 1.98 4.68 3.96 4 6 C3.34 6 2.68 6 2 6 C1.34 4.02 0.68 2.04 0 0 Z " fill="#713F94" transform="translate(34,83)"/>
<path d="M0 0 C0.66 0 1.32 0 2 0 C1.6875 1.875 1.6875 1.875 1 4 C-2.4352048 6.29013653 -3.985331 6.17842973 -8 6 C-8 5.34 -8 4.68 -8 4 C-7.05125 3.896875 -6.1025 3.79375 -5.125 3.6875 C-1.70892499 3.31460705 -1.70892499 3.31460705 0 0 Z " fill="#6E4191" transform="translate(280,77)"/>
<path d="M0 0 C2.475 0.495 2.475 0.495 5 1 C5.33 2.32 5.66 3.64 6 5 C4.68 5.33 3.36 5.66 2 6 C2 5.34 2 4.68 2 4 C1.34 4 0.68 4 0 4 C0 2.68 0 1.36 0 0 Z " fill="#EDE5F1" transform="translate(67,67)"/>
<path d="M0 0 C0 1.66666667 0 3.33333333 0 5 C0.99 5.66 1.98 6.32 3 7 C0.03 7 -2.94 7 -6 7 C-4.02 4.69 -2.04 2.38 0 0 Z " fill="#7D4487" transform="translate(216,116)"/>
<path d="M0 0 C1.99097846 2.98646769 2.94124926 5.59687262 4 9 C3.01 9.495 3.01 9.495 2 10 C1.34 10.99 0.68 11.98 0 13 C0 8.66666667 0 4.33333333 0 0 Z " fill="#78479B" transform="translate(27,77)"/>
<path d="M0 0 C0.2784375 0.8971875 0.2784375 0.8971875 0.5625 1.8125 C2.72273753 5.09981799 5.35107655 5.64854687 9 7 C9 7.33 9 7.66 9 8 C5.3586795 8.33102914 3.58527075 8.42019439 0.5625 6.25 C-1 4 -1 4 -0.75 1.75 C-0.5025 1.1725 -0.255 0.595 0 0 Z " fill="#CD9C4E" transform="translate(191,118)"/>
<path d="M0 0 C2.4375 0.25 2.4375 0.25 5 1 C5.66 1.99 6.32 2.98 7 4 C6.34 4 5.68 4 5 4 C5 5.98 5 7.96 5 10 C4.67 10 4.34 10 4 10 C3.731875 8.88625 3.46375 7.7725 3.1875 6.625 C2.34190981 2.78159049 2.34190981 2.78159049 -1 1 C-0.67 0.67 -0.34 0.34 0 0 Z " fill="#E9DBEE" transform="translate(278,67)"/>
<path d="M0 0 C1.32 0.33 2.64 0.66 4 1 C3.649375 1.78375 3.29875 2.5675 2.9375 3.375 C2.628125 4.24125 2.31875 5.1075 2 6 C2.33 6.66 2.66 7.32 3 8 C2.01 8 1.02 8 0 8 C0 5.36 0 2.72 0 0 Z " fill="#723B8E" transform="translate(235,109)"/>
<path d="M0 0 C2.875 -0.1875 2.875 -0.1875 6 0 C8 3 8 3 7.625 5.6875 C7.41875 6.450625 7.2125 7.21375 7 8 C6.67 8 6.34 8 6 8 C6 6.35 6 4.7 6 3 C4.02 2.34 2.04 1.68 0 1 C0 0.67 0 0.34 0 0 Z " fill="#773E88" transform="translate(210,104)"/>
<path d="M0 0 C1.32 0 2.64 0 4 0 C4 1.65 4 3.3 4 5 C3.01 5.33 2.02 5.66 1 6 C0.34 4.35 -0.32 2.7 -1 1 C-0.67 0.67 -0.34 0.34 0 0 Z " fill="#EDC239" transform="translate(215,87)"/>
<path d="M0 0 C1.65 0 3.3 0 5 0 C5.33 1.32 5.66 2.64 6 4 C5.01 4.33 4.02 4.66 3 5 C1.5 3.625 1.5 3.625 0 2 C0 1.34 0 0.68 0 0 Z " fill="#6F3C93" transform="translate(95,72)"/>
<path d="M0 0 C2.31 0.66 4.62 1.32 7 2 C5.35 3.32 3.7 4.64 2 6 C1.34 5.67 0.68 5.34 0 5 C0 3.35 0 1.7 0 0 Z " fill="#713A88" transform="translate(228,99)"/>
<path d="M0 0 C0 1.65 0 3.3 0 5 C-0.66 4.67 -1.32 4.34 -2 4 C-2 3.34 -2 2.68 -2 2 C-4.31 2 -6.62 2 -9 2 C-5.5647952 -0.29013653 -4.014669 -0.17842973 0 0 Z " fill="#D2A04C" transform="translate(240,72)"/>
<path d="M0 0 C0.66 0 1.32 0 2 0 C2 1.65 2 3.3 2 5 C2.99 4.67 3.98 4.34 5 4 C4.67 5.32 4.34 6.64 4 8 C3.01 7.67 2.02 7.34 1 7 C0.67 4.69 0.34 2.38 0 0 Z " fill="#919193" transform="translate(191,160)"/>
<path d="M0 0 C1.5 1.3125 1.5 1.3125 3 3 C3 3.99 3 4.98 3 6 C1.35 5.67 -0.3 5.34 -2 5 C-1.34 3.35 -0.68 1.7 0 0 Z " fill="#693190" transform="translate(217,116)"/>
<path d="M0 0 C1.65 1.65 3.3 3.3 5 5 C4.67 5.66 4.34 6.32 4 7 C1.525 6.01 1.525 6.01 -1 5 C-0.67 3.35 -0.34 1.7 0 0 Z " fill="#724095" transform="translate(282,89)"/>
<path d="M0 0 C0.99 0.99 1.98 1.98 3 3 C2.67 3.66 2.34 4.32 2 5 C0.35 5 -1.3 5 -3 5 C-2.67 3.68 -2.34 2.36 -2 1 C-1.34 1.33 -0.68 1.66 0 2 C0 1.34 0 0.68 0 0 Z " fill="#713D93" transform="translate(93,77)"/>
<path d="M0 0 C0.99 0.33 1.98 0.66 3 1 C3.33 2.98 3.66 4.96 4 7 C0.125 5.25 0.125 5.25 -1 3 C-0.67 2.01 -0.34 1.02 0 0 Z " fill="#703B95" transform="translate(99,85)"/>
<path d="M0 0 C0.66 0.33 1.32 0.66 2 1 C2 2.65 2 4.3 2 6 C0.35 6.66 -1.3 7.32 -3 8 C-1.125 2.25 -1.125 2.25 0 0 Z " fill="#703A85" transform="translate(238,76)"/>
<path d="M0 0 C0.99 0.33 1.98 0.66 3 1 C3 2.65 3 4.3 3 6 C2.01 5.67 1.02 5.34 0 5 C-0.75 3 -0.75 3 -1 1 C-0.67 0.67 -0.34 0.34 0 0 Z " fill="#F8F4F8" transform="translate(71,72)"/>
<path d="M0 0 C1.32 0 2.64 0 4 0 C3.34 1.32 2.68 2.64 2 4 C0.68 3.67 -0.64 3.34 -2 3 C-1.34 2.01 -0.68 1.02 0 0 Z " fill="#F4F4F5" transform="translate(210,162)"/>
<path d="M0 0 C1.2065625 0.0309375 1.2065625 0.0309375 2.4375 0.0625 C2.4375 0.7225 2.4375 1.3825 2.4375 2.0625 C0.4575 2.3925 -1.5225 2.7225 -3.5625 3.0625 C-3.8925 4.0525 -4.2225 5.0425 -4.5625 6.0625 C-3.48963568 0.08511307 -3.48963568 0.08511307 0 0 Z " fill="#9F9FA1" transform="translate(176.5625,148.9375)"/>
<path d="M0 0 C0.66 0.99 1.32 1.98 2 3 C1.67 3.99 1.34 4.98 1 6 C-0.65 6 -2.3 6 -4 6 C-3.34 4.68 -2.68 3.36 -2 2 C-1.34 2 -0.68 2 0 2 C0 1.34 0 0.68 0 0 Z " fill="#693294" transform="translate(199,118)"/>
<path d="M0 0 C0 0.66 0 1.32 0 2 C-0.99 2 -1.98 2 -3 2 C-3 2.66 -3 3.32 -3 4 C-2.34 4.33 -1.68 4.66 -1 5 C-3.97 4.505 -3.97 4.505 -7 4 C-4.83989616 0.75984424 -3.8842653 0 0 0 Z " fill="#723A88" transform="translate(208,108)"/>
<path d="M0 0 C1.5625 1.25 1.5625 1.25 3 3 C2.6875 5.1875 2.6875 5.1875 2 7 C1.01 6.34 0.02 5.68 -1 5 C-0.67 3.35 -0.34 1.7 0 0 Z " fill="#ECE4F0" transform="translate(103,83)"/>
<path d="M0 0 C0.99 0.33 1.98 0.66 3 1 C2.67 1.99 2.34 2.98 2 4 C1.34 4 0.68 4 0 4 C-0.33 4.66 -0.66 5.32 -1 6 C-1.99 5.34 -2.98 4.68 -4 4 C-2.68 2.68 -1.36 1.36 0 0 Z " fill="#E9DEEF" transform="translate(282,78)"/>
<path d="M0 0 C2 2 2 2 2.1953125 4.1640625 C2.17210938 4.97617188 2.14890625 5.78828125 2.125 6.625 C2.10695313 7.44226563 2.08890625 8.25953125 2.0703125 9.1015625 C2.03550781 10.04128906 2.03550781 10.04128906 2 11 C1.67 11 1.34 11 1 11 C1 8.69 1 6.38 1 4 C0.01 3.67 -0.98 3.34 -2 3 C-1 1 -1 1 0 0 Z " fill="#8054A1" transform="translate(114,75)"/>
<path d="M0 0 C0.33 0.66 0.66 1.32 1 2 C1.33 1.34 1.66 0.68 2 0 C3.32 0.33 4.64 0.66 6 1 C5.67 2.65 5.34 4.3 5 6 C2.5 4.6875 2.5 4.6875 0 3 C0 2.01 0 1.02 0 0 Z " fill="#6F3E9C" transform="translate(236,68)"/>
<path d="M0 0 C1.32 0.66 2.64 1.32 4 2 C3.401875 2.28875 2.80375 2.5775 2.1875 2.875 C-0.19327792 4.04742026 -0.19327792 4.04742026 -3 6 C-3.33 4.68 -3.66 3.36 -4 2 C-2.68 2 -1.36 2 0 2 C0 1.34 0 0.68 0 0 Z " fill="#703B94" transform="translate(125,63)"/>
</svg>
